<?xml version="1.0" encoding="utf-8"?>
<!-- Generator: Adobe Illustrator 19.2.1, SVG Export Plug-In . SVG Version: 6.00 Build 0)  -->
<svg version="1.1" id="bcc78b6a-42d3-482d-a166-e03269f3a1e1"
	 xmlns="http://www.w3.org/2000/svg" xmlns:xlink="http://www.w3.org/1999/xlink" x="0px" y="0px" viewBox="0 0 1188 795.3"
	 style="enable-background:new 0 0 1188 795.3;" xml:space="preserve">
<style type="text/css">
	.st0{fill:url(#SVGID_1_);}
	.st1{opacity:0.3;fill:#2196F3;enable-background:new    ;}
	.st2{fill:#2196F3;}
	.st3{opacity:0.2;enable-background:new    ;}
	.st4{fill:#3F3D56;}
	.st5{opacity:3.000000e-02;enable-background:new    ;}
	.st6{opacity:0.3;fill:#6C63FF;enable-background:new    ;}
	.st7{opacity:0.1;fill:#6C63FF;enable-background:new    ;}
	.st8{fill:#2F2E41;}
	.st9{opacity:0.6;fill:#FFFFFF;enable-background:new    ;}
	.st10{opacity:0.1;enable-background:new    ;}
	.st11{fill:none;stroke:#2F2E41;stroke-width:4;stroke-miterlimit:10;}
	.st12{fill:none;stroke:#3F3D56;stroke-width:4;stroke-miterlimit:10;}
	.st13{fill:url(#SVGID_2_);}
	.st14{opacity:0.1;}
	.st15{fill:#FBBEBE;}
	.st16{fill:#FF6F61;}
</style>
<title>dreamer</title>
<linearGradient id="SVGID_1_" gradientUnits="userSpaceOnUse" x1="599.9982" y1="-51.67" x2="599.9982" y2="697" gradientTransform="matrix(1 0 0 -1 -6 743.67)">
	<stop  offset="0" style="stop-color:#2196F3"/>
	<stop  offset="1" style="stop-color:#3F3D56"/>
</linearGradient>
<path class="st0" d="M1136.3,356.1c-4.7-6.5-9.6-12.9-14.9-19c-26.5-31.1-59.6-55.9-96.8-72.8c-10.2-4.6-20.6-8.6-31.3-11.9
	c-7.4-2.3-14.9-4.3-22.6-6l-14.4-2.8c-73.5-12.3-148.8,5.4-209.1,49c-7.2-0.9-14.4-1.5-21.8-1.8c-0.3-0.8-0.6-1.5-0.9-2.3
	c-2.5-6.5-5.1-12.9-7.9-19.2c-15.7-35.3-36.7-68-62.4-96.9c-1.2-1.3-2.4-2.6-3.6-3.9c-17.1-18.7-36.1-35.7-56.6-50.6
	c-63.7-46.3-140.5-71.2-219.2-71.2h-0.5c-5.8,0-11.6,0.1-17.4,0.4l-22.3,1.7c-1.8,0.2-3.7,0.4-5.5,0.6l0,0l-22.5,3.4
	c-6,1.1-11.9,2.3-17.7,3.7c-79.6,18.7-151,63-203.1,126c-6.3,7.6-12.3,15.5-18,23.6c-2.7,3.9-5.3,7.8-7.9,11.7
	c-1.2,1.9-2.4,3.8-3.6,5.7c-4,6.3-7.7,12.8-11.3,19.4c-3.8,7-7.3,14.1-10.7,21.3c0,0.1-0.1,0.1-0.1,0.2C23.5,287.7,15.2,312,9.5,337
	l0,0c-1.5,6.6-2.8,13.2-4,19.9c-0.5,2.6-0.9,5.1-1.3,7.7l-0.1,0.9c-1,7-1.9,14-2.5,21.1l-0.9,0.1c0.1,0.2,0.1,0.4,0.2,0.6
	c0.2,0.1,0.4,0.2,0.6,0.3c-0.1,0.9-0.2,1.8-0.2,2.7c0.1,0.8,0,1.6-0.2,2.4C0.4,402,0,411.5,0,421C-0.1,481.4,14.5,541,42.5,594.5
	l0.4,0.7c28.4,53.8,69.5,100,119.6,134.5c39.9,27.5,84.8,46.9,132.1,57.2l8.3,1.7c11.4,2.2,23,3.9,34.8,5c12,1.2,24.2,1.7,36.5,1.8
	c17.2,0,34.3-1.2,51.3-3.5H866l3.6,0.5c151.8,22.4,293-82.5,315.4-234.3C1195.5,486.9,1178,414.5,1136.3,356.1L1136.3,356.1z"/>
<path class="st1" d="M989,561L989,561c0-3.3-0.2-6.5-0.3-9.7c-0.2-4.1-0.5-8.1-0.9-12.2c-1.1-11.4-2.9-22.8-5.4-34
	c-0.1-0.5-0.2-1-0.3-1.5c-2-8.6-4.4-17.1-7.2-25.4c-1.9-5.6-3.9-11.1-6.2-16.5l0,0c-0.8-1.9-1.6-3.9-2.4-5.8
	c-3.9-8.9-8.2-17.6-13-26l0,0l-0.6-1.1c-1.5-2.5-3-5-4.5-7.5l0,0l-0.6-1c-0.3-0.5-0.6-0.9-0.8-1.3v-0.1c-2-3.1-4-6.2-6.1-9.2
	c-6.5-9.5-13.6-18.5-21.3-27.1l0,0c-11.3-12.6-23.7-24.2-37.1-34.6l0,0c-3.3-2.5-6.7-5-10.2-7.5l0,0c-37-26-79.9-42.5-124.8-47.9
	c-7.2-0.9-14.4-1.5-21.8-1.8c-1.8-0.1-3.6-0.1-5.4-0.2c-2-0.1-4-0.1-6-0.1c-11.7,0-23.5,0.7-35.1,2.2c-19.5,2.5-38.6,7.1-57.1,13.6
	C572.6,221.8,482,169.7,384,169.7c-9.8,0-19.6,0.5-29.4,1.6c-1.1,0.1-2.2,0.2-3.2,0.4c-13.2,1.6-26.3,4.1-39.2,7.6
	c-3.8-6.3-7.9-12.4-12.2-18.4s-8.7-11.6-13.4-17.1c-4-4.7-8.1-9.2-12.4-13.6c-0.1-0.1-0.3-0.3-0.4-0.4c-6.6-6.8-13.6-13.3-20.9-19.4
	c-3.9-3.3-7.9-6.4-12-9.4c-5.1-3.8-10.4-7.5-15.8-10.9c-3.8-2.4-7.7-4.8-11.6-7c-49.3,23.5-92.9,57.5-127.7,99.6
	c-6.3,7.6-12.3,15.5-18,23.6c-2.7,3.9-5.3,7.8-7.9,11.7c-1.2,1.9-2.4,3.8-3.6,5.7c-4,6.3-7.7,12.8-11.3,19.4
	c-3.8,7-7.3,14.1-10.7,21.3c0,0.1-0.1,0.1-0.1,0.2C23.5,287.7,15.2,312,9.5,337l0,0c-1.5,6.6-2.8,13.2-4,19.9
	c-0.5,2.6-0.9,5.1-1.3,7.7l-0.1,0.9c-1,7-1.9,14-2.5,21.1l-0.9,0.1c0.1,0.2,0.1,0.4,0.2,0.6c0.2,0.1,0.4,0.2,0.6,0.3
	c-0.1,0.9-0.2,1.8-0.2,2.7c0.1,0.8,0,1.6-0.2,2.4C0.4,402,0,411.5,0,421C-0.1,481.4,14.5,541,42.5,594.5c0.3,0,0.7,0.1,1,0.1l0,0
	c35.2,4.3,70.9,1.8,105.2-7.5c3.1,5.1,6.4,10.2,9.9,15.1c2.6,3.7,5.2,7.2,7.9,10.7c22.6,29.2,50.9,53.6,83.1,71.7
	c1.4,0.8,2.8,1.6,4.3,2.3c12.9,6.9,26.2,12.8,40.1,17.5c5.3,1.9,10.8,3.6,16.3,5.1c0.3,0.1,0.6,0.2,0.9,0.2
	c17.4,4.7,35.2,7.8,53.1,9c6.5,0.5,13,0.7,19.6,0.7c14.9,0,29.7-1.2,44.3-3.6c9.2-1.5,18.2-3.5,27.2-5.9l0,0c7-1.9,13.9-4,20.6-6.4
	c1.9,3.3,3.9,6.5,5.9,9.6c6.9,10.9,14.6,21.2,23,31c4.2,4.9,8.6,9.7,13.1,14.3c12.1,12.3,25.3,23.4,39.5,33.2H866l3.6,0.5
	c14.5-9.9,27.9-21.2,40.3-33.7c39.4-39.9,65.6-91,75.1-146.3c0.9-5.3,1.7-10.7,2.3-16.1c1.1-10.2,1.7-20.4,1.7-30.6
	C989,564.1,989,562.5,989,561z"/>
<path class="st2" d="M1188,517.5c-0.1,99.6-53.4,191.5-139.7,241.1H506.8c-0.7-4.8-1.3-9.5-1.8-14.3c-0.4-3.6-0.8-7.1-1.2-10.7
	c-0.7-6.2-1.2-12.4-1.7-18.7c-2.4-33.6-1-68,12.4-98.1c1.7-3.9,3.6-7.6,5.7-11.3c3.1-5.4,6.6-10.5,10.5-15.4
	c3.4-4.3,7.1-8.4,11-12.2c5.2-5.2,10.8-10,16.7-14.4c2.8-2.1,5.7-4.2,8.6-6.2l0.5-0.4c15.1-10.1,31.7-18.4,48.3-25.5l3.5-1.4
	l0.9-0.4c1.6-0.7,3.3-1.3,4.9-2l0.7-0.3c8.8-3.5,17.7-6.8,26.6-9.8c15.2-5.1,30.6-9.5,46.2-13.2c3.9-0.9,7.8-1.8,11.7-2.6
	c3.8-0.8,7.6-1.6,11.4-2.3c8.4-1.6,16.8-3,25.3-4.2c0.9-0.1,1.8-0.2,2.6-0.3l5.5-0.7l1-0.1c1.6-0.2,3.2-0.4,4.8-0.6
	c6.5-0.8,13.1-1.4,19.6-2l0,0c0.3,0,0.5,0,0.8-0.1h0.1c6.9-0.6,13.9-1.1,20.8-1.6l4.9-0.4l4-0.3c7.9-0.6,15.8-1.1,23.8-1.7
	c6.4-0.5,12.8-1,19.2-1.6c1.1-0.1,2.2-0.2,3.3-0.3l2.2-0.2c0.2,0,0.4,0,0.6-0.1h0.3l3.7-0.4c0.1,0,0.1,0,0.2,0l0,0
	c1.1-0.1,2.1-0.2,3.2-0.3c8.5-0.9,17-1.9,25.4-3.2l2.6-0.4c14.6-2.2,29.1-5.4,43.4-9.4c3.3-0.9,6.5-1.9,9.7-2.9
	c3.7-1.2,7.4-2.5,11-3.8l1.5-0.6c2.5-1,5.1-2,7.6-3l0,0c3.6-1.5,7.2-3.1,10.8-4.8l0.5-0.2c4.2-2,8.3-4.1,12.4-6.4
	c1.9-1.1,3.8-2.2,5.6-3.3c9.3-5.6,18.1-12.1,26.3-19.3c0.6-0.6,1.2-1.1,1.8-1.7l0.2-0.2c7.9-7.5,15.4-15.6,22.4-24
	c9.9-11.7,19.6-23.7,30.5-34.4c3.2-3.1,6.5-6.1,10-9c4-3.3,8.1-6.4,12.3-9.3l0.6-0.4c6.2-4.3,12.7-8.1,19.4-11.6
	c5.2,6.1,10.2,12.4,14.9,19C1170,403.1,1188.1,459.6,1188,517.5z"/>
<path class="st3" d="M1188,517.5c-0.1,99.6-53.4,191.5-139.7,241.1H506.8c-0.7-4.8-1.3-9.5-1.8-14.3c-0.4-3.6-0.8-7.1-1.2-10.7
	c-0.7-6.2-1.2-12.4-1.7-18.7c-2.4-33.6-1-68,12.4-98.1c1.7-3.9,3.6-7.6,5.7-11.3c3.1-5.4,6.6-10.5,10.5-15.4
	c3.4-4.3,7.1-8.4,11-12.2c5.2-5.2,10.8-10,16.7-14.4c2.8-2.1,5.7-4.2,8.6-6.2l0.5-0.4c15.1-10.1,31.7-18.4,48.3-25.5l3.5-1.4
	l0.9-0.4c1.6-0.7,3.3-1.3,4.9-2l0.7-0.3c8.8-3.5,17.7-6.8,26.6-9.8c15.2-5.1,30.6-9.5,46.2-13.2c3.9-0.9,7.8-1.8,11.7-2.6
	c3.8-0.8,7.6-1.6,11.4-2.3c8.4-1.6,16.8-3,25.3-4.2c0.9-0.1,1.8-0.2,2.6-0.3l5.5-0.7l1-0.1c1.6-0.2,3.2-0.4,4.8-0.6
	c6.5-0.8,13.1-1.4,19.6-2l0,0c0.3,0,0.5,0,0.8-0.1h0.1c6.9-0.6,13.9-1.1,20.8-1.6l4.9-0.4l4-0.3c7.9-0.6,15.8-1.1,23.8-1.7
	c6.4-0.5,12.8-1,19.2-1.6c1.1-0.1,2.2-0.2,3.3-0.3l2.2-0.2c0.2,0,0.4,0,0.6-0.1h0.3l3.7-0.4c0.1,0,0.1,0,0.2,0l0,0
	c1.1-0.1,2.1-0.2,3.2-0.3c8.5-0.9,17-1.9,25.4-3.2l2.6-0.4c14.6-2.2,29.1-5.4,43.4-9.4c3.3-0.9,6.5-1.9,9.7-2.9
	c3.7-1.2,7.4-2.5,11-3.8l1.5-0.6c2.5-1,5.1-2,7.6-3l0,0c3.6-1.5,7.2-3.1,10.8-4.8l0.5-0.2c4.2-2,8.3-4.1,12.4-6.4
	c1.9-1.1,3.8-2.2,5.6-3.3c9.3-5.6,18.1-12.1,26.3-19.3c0.6-0.6,1.2-1.1,1.8-1.7l0.2-0.2c7.9-7.5,15.4-15.6,22.4-24
	c9.9-11.7,19.6-23.7,30.5-34.4c3.2-3.1,6.5-6.1,10-9c4-3.3,8.1-6.4,12.3-9.3l0.6-0.4c6.2-4.3,12.7-8.1,19.4-11.6
	c5.2,6.1,10.2,12.4,14.9,19C1170,403.1,1188.1,459.6,1188,517.5z"/>
<ellipse class="st4" cx="197.3" cy="504.8" rx="5.4" ry="7.1"/>
<ellipse class="st4" cx="197.3" cy="496.1" rx="5.4" ry="7.1"/>
<ellipse class="st4" cx="197.3" cy="487.5" rx="5.4" ry="7.1"/>
<ellipse class="st4" cx="197.3" cy="478.8" rx="5.4" ry="7.1"/>
<ellipse class="st4" cx="197.3" cy="470.1" rx="5.4" ry="7.1"/>
<ellipse class="st4" cx="197.3" cy="461.5" rx="5.4" ry="7.1"/>
<ellipse class="st4" cx="197.3" cy="452.8" rx="5.4" ry="7.1"/>
<path class="st2" d="M217.6,393.5c0.7-1,1.4-2,2-3l-14.2-2.3l15.4,0.1c3-6.5,3.2-13.9,0.5-20.5l-20.6,10.7l19-14
	c-7.2-12.4-23-16.7-35.4-9.5c-12.4,7.2-16.7,23-9.5,35.4c0.6,1.1,1.3,2.1,2.1,3.1c-1.2,1.5-2.2,3-3,4.7l18.5,9.6l-19.7-6.6
	c-2.8,8.3-1.2,17.5,4.2,24.4c-8.9,11.3-6.9,27.6,4.3,36.4c11.3,8.9,27.6,6.9,36.4-4.3c7.4-9.4,7.4-22.7,0-32.1
	c7.4-9.4,7.4-22.7,0-32.1L217.6,393.5z"/>
<path class="st5" d="M171.2,409.6c0,5.8,2,11.4,5.6,16c-8.9,11.3-6.9,27.6,4.3,36.4c11.3,8.9,27.6,6.9,36.4-4.3
	c7.4-9.4,7.4-22.7,0-32.1C221,421.2,171.2,406.7,171.2,409.6z"/>
<ellipse class="st4" cx="254.3" cy="527.8" rx="5.4" ry="7.1"/>
<ellipse class="st4" cx="254.3" cy="519.1" rx="5.4" ry="7.1"/>
<ellipse class="st4" cx="254.3" cy="510.5" rx="5.4" ry="7.1"/>
<ellipse class="st4" cx="254.3" cy="501.8" rx="5.4" ry="7.1"/>
<ellipse class="st4" cx="254.3" cy="493.1" rx="5.4" ry="7.1"/>
<ellipse class="st4" cx="254.3" cy="484.5" rx="5.4" ry="7.1"/>
<ellipse class="st4" cx="254.3" cy="475.8" rx="5.4" ry="7.1"/>
<path class="st2" d="M274.5,416.5c0.7-1,1.4-2,2-3l-14.2-2.3l15.4,0.1c3-6.5,3.2-13.9,0.5-20.5l-20.6,10.7l19-14
	c-7.2-12.4-23-16.7-35.4-9.5c-12.4,7.2-16.7,23-9.5,35.4c0.6,1.1,1.3,2.1,2.1,3.1c-1.2,1.5-2.2,3-3,4.7l18.5,9.6l-19.7-6.6
	c-2.8,8.3-1.2,17.5,4.2,24.4c-8.9,11.3-6.9,27.6,4.3,36.4c11.3,8.9,27.6,6.9,36.4-4.3c7.4-9.4,7.4-22.7,0-32.1
	c7.4-9.4,7.4-22.7,0-32.1L274.5,416.5z"/>
<path class="st5" d="M228.2,432.6c0,5.8,2,11.4,5.6,16c-8.9,11.3-6.9,27.6,4.3,36.4c11.3,8.9,27.6,6.9,36.4-4.3
	c7.4-9.4,7.4-22.7,0-32.1C278,444.2,228.2,429.7,228.2,432.6z"/>
<ellipse class="st4" cx="621.3" cy="548.8" rx="5.4" ry="7.1"/>
<ellipse class="st4" cx="621.3" cy="540.1" rx="5.4" ry="7.1"/>
<ellipse class="st4" cx="621.3" cy="531.5" rx="5.4" ry="7.1"/>
<ellipse class="st4" cx="621.3" cy="522.8" rx="5.4" ry="7.1"/>
<ellipse class="st4" cx="621.3" cy="514.1" rx="5.4" ry="7.1"/>
<ellipse class="st4" cx="621.3" cy="505.5" rx="5.4" ry="7.1"/>
<ellipse class="st4" cx="621.3" cy="496.8" rx="5.4" ry="7.1"/>
<path class="st2" d="M641.5,437.5c0.7-1,1.4-2,2-3l-14.2-2.3l15.4,0.1c3-6.5,3.2-13.9,0.5-20.5l-20.6,10.7l19-14
	c-7.2-12.4-23-16.7-35.4-9.5c-12.4,7.2-16.7,23-9.5,35.4c0.6,1.1,1.3,2.1,2.1,3.1c-1.2,1.5-2.2,3-3,4.7l18.5,9.6l-19.7-6.6
	c-2.8,8.3-1.2,17.5,4.2,24.3c-8.9,11.3-6.9,27.6,4.3,36.4s27.6,6.9,36.4-4.3c7.4-9.4,7.4-22.7,0-32.1c7.4-9.4,7.4-22.7,0-32.1
	L641.5,437.5z"/>
<path class="st5" d="M595.2,453.6c0,5.8,2,11.4,5.5,16c-8.9,11.3-6.9,27.6,4.3,36.4s27.6,6.9,36.4-4.3c7.4-9.4,7.4-22.7,0-32.1
	C645,465.2,595.2,450.7,595.2,453.6z"/>
<ellipse class="st4" cx="678.3" cy="583.8" rx="5.4" ry="7.1"/>
<ellipse class="st4" cx="678.3" cy="575.1" rx="5.4" ry="7.1"/>
<ellipse class="st4" cx="678.3" cy="566.5" rx="5.4" ry="7.1"/>
<ellipse class="st4" cx="678.3" cy="557.8" rx="5.4" ry="7.1"/>
<ellipse class="st4" cx="678.3" cy="549.1" rx="5.4" ry="7.1"/>
<ellipse class="st4" cx="678.3" cy="540.5" rx="5.4" ry="7.1"/>
<ellipse class="st4" cx="678.3" cy="531.8" rx="5.4" ry="7.1"/>
<path class="st2" d="M698.5,472.5c0.7-1,1.4-2,2-3l-14.2-2.3l15.4,0.1c3-6.5,3.2-13.9,0.5-20.5l-20.6,10.7l19-14
	c-7.2-12.4-23-16.7-35.4-9.5s-16.7,23-9.5,35.4c0.6,1.1,1.3,2.1,2.1,3.1c-1.2,1.5-2.2,3-3,4.7l18.5,9.6l-19.7-6.6
	c-2.8,8.3-1.2,17.5,4.2,24.3c-8.9,11.3-6.9,27.6,4.3,36.4s27.6,6.9,36.4-4.3c7.4-9.4,7.4-22.7,0-32.1c7.4-9.4,7.4-22.7,0-32.1
	L698.5,472.5z"/>
<path class="st5" d="M652.2,488.6c0,5.8,2,11.4,5.5,16c-8.9,11.3-6.9,27.6,4.3,36.4s27.6,6.9,36.4-4.3c7.4-9.4,7.4-22.7,0-32.1
	C702,500.2,652.2,485.7,652.2,488.6z"/>
<ellipse class="st4" cx="736.3" cy="628.8" rx="5.4" ry="7.1"/>
<ellipse class="st4" cx="736.3" cy="620.1" rx="5.4" ry="7.1"/>
<ellipse class="st4" cx="736.3" cy="611.5" rx="5.4" ry="7.1"/>
<ellipse class="st4" cx="736.3" cy="602.8" rx="5.4" ry="7.1"/>
<ellipse class="st4" cx="736.3" cy="594.1" rx="5.4" ry="7.1"/>
<ellipse class="st4" cx="736.3" cy="585.5" rx="5.4" ry="7.1"/>
<ellipse class="st4" cx="736.3" cy="576.8" rx="5.4" ry="7.1"/>
<path class="st2" d="M756.5,517.5c0.7-1,1.4-2,2-3l-14.2-2.3l15.4,0.1c3-6.5,3.2-13.9,0.5-20.5l-20.6,10.7l19-14
	c-7.2-12.4-23-16.7-35.4-9.5c-12.4,7.2-16.7,23-9.5,35.4c0.6,1.1,1.3,2.1,2.1,3.1c-1.2,1.5-2.2,3-3,4.7l18.5,9.6l-19.7-6.6
	c-2.8,8.3-1.2,17.5,4.2,24.3c-8.9,11.3-6.9,27.6,4.3,36.4s27.6,6.9,36.4-4.3c7.4-9.4,7.4-22.7,0-32.1c7.4-9.4,7.4-22.7,0-32.1
	L756.5,517.5z"/>
<path class="st5" d="M710.2,533.6c0,5.8,2,11.4,5.5,16c-8.9,11.3-6.9,27.6,4.3,36.4s27.6,6.9,36.4-4.3c7.4-9.4,7.4-22.7,0-32.1
	C760,545.2,710.2,530.7,710.2,533.6z"/>
<ellipse class="st4" cx="781.3" cy="550.8" rx="5.4" ry="7.1"/>
<ellipse class="st4" cx="781.3" cy="542.1" rx="5.4" ry="7.1"/>
<ellipse class="st4" cx="781.3" cy="533.5" rx="5.4" ry="7.1"/>
<ellipse class="st4" cx="781.3" cy="524.8" rx="5.4" ry="7.1"/>
<ellipse class="st4" cx="781.3" cy="516.1" rx="5.4" ry="7.1"/>
<ellipse class="st4" cx="781.3" cy="507.5" rx="5.4" ry="7.1"/>
<ellipse class="st4" cx="781.3" cy="498.8" rx="5.4" ry="7.1"/>
<path class="st2" d="M801.5,439.5c0.7-1,1.4-2,2-3l-14.2-2.3l15.4,0.1c3-6.5,3.2-13.9,0.5-20.5l-20.6,10.7l19-14
	c-7.2-12.4-23-16.7-35.4-9.5c-12.4,7.2-16.7,23-9.5,35.4c0.6,1.1,1.3,2.1,2.1,3.1c-1.2,1.5-2.2,3-3,4.7l18.5,9.6l-19.7-6.6
	c-2.8,8.3-1.2,17.5,4.2,24.3c-8.9,11.3-6.9,27.6,4.3,36.4s27.6,6.9,36.4-4.3c7.4-9.4,7.4-22.7,0-32.1c7.4-9.4,7.4-22.7,0-32.1
	L801.5,439.5z"/>
<path class="st5" d="M755.2,455.6c0,5.8,2,11.4,5.5,16c-8.9,11.3-6.9,27.6,4.3,36.4s27.6,6.9,36.4-4.3c7.4-9.4,7.4-22.7,0-32.1
	C805,467.2,755.2,452.7,755.2,455.6z"/>
<ellipse class="st4" cx="1112.3" cy="441.8" rx="5.4" ry="7.1"/>
<ellipse class="st4" cx="1112.3" cy="433.1" rx="5.4" ry="7.1"/>
<ellipse class="st4" cx="1112.3" cy="424.5" rx="5.4" ry="7.1"/>
<ellipse class="st4" cx="1112.3" cy="415.8" rx="5.4" ry="7.1"/>
<ellipse class="st4" cx="1112.3" cy="407.1" rx="5.4" ry="7.1"/>
<ellipse class="st4" cx="1112.3" cy="398.5" rx="5.4" ry="7.1"/>
<ellipse class="st4" cx="1112.3" cy="389.8" rx="5.4" ry="7.1"/>
<path class="st2" d="M1138.1,378.7c0,0.4,0,0.8,0,1.2s0,0.5,0,0.8s0,0.4,0,0.6s0,0.3,0,0.5c0,0.1-0.1,0.5-0.1,0.8c0,0.1,0,0.2,0,0.3
	c0,0.3-0.1,0.6-0.2,0.9c0,0.2-0.1,0.3-0.1,0.5c-0.1,0.4-0.2,0.7-0.3,1.1s-0.2,0.7-0.3,1.1c-0.2,0.8-0.5,1.6-0.9,2.4
	c-0.2,0.4-0.3,0.8-0.5,1.2s-0.3,0.7-0.5,1s-0.3,0.5-0.4,0.8c-0.1,0.3-0.3,0.5-0.5,0.8s-0.1,0.2-0.2,0.3s-0.3,0.4-0.4,0.6
	s-0.1,0.1-0.2,0.2c-0.2,0.3-0.4,0.5-0.6,0.8c-1,1.3-2.1,2.5-3.3,3.6c-0.3,0.2-0.5,0.5-0.8,0.7l-0.1,0.1l-0.7,0.6l-0.4,0.3
	c-0.2,0.2-0.5,0.4-0.7,0.5c-1.1,0.8-2.3,1.5-3.6,2c-0.3,0.2-0.7,0.3-1,0.4c-0.3,0.1-0.6,0.3-1,0.4c-0.4,0.1-0.4,0.2-0.6,0.2
	l-0.4,0.1l-1,0.3l-1,0.3c-0.1,0-0.3,0.1-0.4,0.1l-0.8,0.2c-0.6,0.1-1.2,0.2-1.9,0.3h-0.1c-0.2,0-0.4,0.1-0.7,0.1
	c-0.3,0-0.5,0.1-0.8,0.1h-0.5c-0.3,0-0.7,0-1.1,0s-0.7,0-1,0h-0.4c-0.3,0-0.5,0-0.8-0.1c-0.2,0-0.4,0-0.6-0.1l0,0
	c-0.7-0.1-1.3-0.1-1.9-0.3c-0.3-0.1-0.7-0.1-1-0.2c-0.1,0-0.2,0-0.2,0c-1.4-0.3-2.8-0.8-4.1-1.3c-0.7-0.3-1.4-0.6-2.1-1
	c-0.3-0.2-0.7-0.4-1-0.5l-0.7-0.4c-0.5-0.3-0.9-0.6-1.3-0.9c-0.2-0.1-0.4-0.3-0.5-0.4c-0.1-0.1-0.3-0.2-0.4-0.3
	c-0.2-0.2-0.4-0.3-0.6-0.5c-0.1,0-0.1-0.1-0.2-0.1c-0.2-0.2-0.5-0.4-0.7-0.6c-0.8-0.8-1.6-1.6-2.3-2.4c-0.2-0.3-0.5-0.6-0.7-0.9
	c-0.2-0.3-0.3-0.4-0.5-0.6c-0.1-0.2-0.2-0.3-0.3-0.5c-0.1-0.2-0.3-0.5-0.5-0.7s-0.4-0.6-0.6-0.9c-0.4-0.6-0.7-1.2-1-1.9
	c-0.1-0.3-0.3-0.6-0.4-0.9c-0.2-0.5-0.4-1-0.6-1.6c-0.1-0.4-0.3-0.7-0.4-1.1s-0.2-0.8-0.3-1.2c0,0,0,0,0,0c-0.1-0.4-0.2-0.7-0.2-1.1
	s-0.1-0.6-0.2-0.9s-0.1-0.6-0.1-0.8c0-0.1,0-0.1,0-0.2c-0.1-0.3-0.1-0.7-0.1-1s-0.1-0.8-0.1-1.2s0-0.8,0-1.2c0-5.8,2-11.4,5.6-16
	c-0.4-0.6-0.9-1.1-1.2-1.7c-0.1-0.2-0.2-0.4-0.4-0.6s-0.3-0.5-0.5-0.8c-0.2-0.3-0.4-0.6-0.6-1c0,0,0-0.1-0.1-0.1
	c-0.3-0.7-0.7-1.3-0.9-2c-0.1-0.2-0.2-0.5-0.3-0.7c-0.2-0.7-0.5-1.3-0.7-2c-0.2-0.8-0.4-1.6-0.6-2.4c-0.1-0.2-0.1-0.5-0.1-0.7
	c0,0,0,0,0-0.1c0-0.2-0.1-0.5-0.1-0.7c-0.1-0.6-0.1-1.2-0.2-1.8c0-0.2,0-0.3,0-0.5c0-0.3,0-0.6,0-0.9c0-2.8,0.5-5.6,1.4-8.3
	l19.7,6.6l-18.5-9.6c0.8-1.7,1.8-3.3,3-4.7c-5.8-7.4-7.2-17.5-3.5-26.2c11.9,10,23,20.9,33.1,32.8c5.2,6.1,10.2,12.4,14.9,19
	c-0.9,2.3-2.1,4.5-3.7,6.4l-0.1,0.1C1136.3,367.3,1138.1,372.9,1138.1,378.7z"/>
<path class="st5" d="M1086.2,346.6c0,5.8,2,11.4,5.6,16c-8.9,11.3-6.9,27.6,4.3,36.4c11.3,8.9,27.6,6.9,36.4-4.3
	c7.4-9.4,7.4-22.7,0-32.1C1136,358.2,1086.2,343.7,1086.2,346.6z"/>
<path class="st6" d="M654.2,172.5c-11.5,3.8-23.1,7.3-34.8,10.3c10.4-4.9,20.8-9.6,31.3-14.2C651.9,169.8,653,171.1,654.2,172.5z"/>
<path class="st6" d="M356.9,47.1c5.8-0.3,11.6-0.4,17.4-0.4h0.5c-7.1,4.7-14.3,9.2-21.5,13.4c-1.8,1-3.6,2.1-5.4,3.1
	c-1.4,0.8-2.7,1.5-4.1,2.3c-10.8,5.9-21.7,11.6-32.7,17.2c-8.3,4.2-16.7,8.4-25.1,12.4c-11,5.3-22,10.3-33.1,15.2
	c-26.9,11.8-54.1,22.4-81.5,31.5c23.2-14,46.4-27.7,69.6-41c16.4-9.4,32.9-18.7,49.4-27.8c1.8-1,3.6-2,5.4-3
	c12-6.7,24.1-13.2,36.2-19.7l2.8-1.5L356.9,47.1z"/>
<path class="st6" d="M716.6,269.3c2.8,6.3,5.4,12.7,7.9,19.2c-1.5,0.7-3,1.4-4.6,2.2c-35.2,16.4-70.7,31.2-106.5,44.1
	c21.8-14.2,43.6-28.2,65.5-41.9C691.5,284.9,704,277.1,716.6,269.3z"/>
<path class="st4" d="M728.8,758.7c-0.2-24.6-3.6-48.8-13.3-70.7c-1.7-3.9-3.6-7.6-5.7-11.3c-3.1-5.3-6.5-10.4-10.3-15.2
	c-2.9-3.7-6.1-7.3-9.4-10.7c-8.2-8.4-17.3-15.8-27.1-22.3c-16.2-11-34.3-19.9-52.3-27.3c-22.4-9.3-45.5-17-69-23
	c-2.8-0.7-5.6-1.4-8.4-2.1c-0.9-0.2-1.7-0.4-2.6-0.6l-2.8-0.7l0,0c-1.6-0.4-3.2-0.7-4.8-1.1c-4.8-1.1-9.7-2.1-14.5-3
	c-8.4-1.6-16.8-3-25.3-4.2c-18.3-2.5-36.8-4.1-55.2-5.4l-8.9-0.6l0,0c-7.9-0.6-15.8-1.1-23.8-1.7c-7.9-0.6-15.9-1.2-23.8-2l-1.9-0.1
	l-3.7-0.4c-3.3-0.3-6.6-0.7-9.9-1.1c-6.3-0.7-12.7-1.5-19-2.5c-7-1-14.1-2.3-21.1-3.7l-1.1-0.2c-1.9-0.4-3.7-0.8-5.6-1.2
	c-1.1-0.2-2.2-0.5-3.3-0.8c-6.7-1.6-13.4-3.4-20-5.4c-9.2-2.8-18.3-6.1-27.2-9.9c-3-1.3-5.9-2.6-8.8-4l-1.2-0.6
	c-16.4-7.8-31.6-18-45.1-30.3l-1.1-1l-2.4-2.3c-1.4-1.4-2.8-2.8-4.1-4.2s-2.6-2.8-3.9-4.2c-7.6-8.2-14.6-16.8-21.8-25.3
	c-6.2-7.3-12.6-14.6-19.5-21.3c-1.3-1.2-2.6-2.4-3.9-3.6c-6-5.5-12.3-10.5-19-15.1c-0.9-0.6-1.9-1.3-2.8-1.9
	c-3.7-2.5-7.6-4.8-11.5-7c-3.8-2.1-7.8-4.1-11.8-6c-5.3-2.5-10.8-4.7-16.3-6.7c-9.3-3.3-18.9-6-28.6-7.9c-14-2.9-28.4-4.3-42.7-4.2
	l0,0c-4.2,0-8.4,0.2-12.6,0.5l-0.9,0.1c0.1,0.2,0.1,0.4,0.2,0.6c0.2,0.1,0.4,0.2,0.6,0.3c-0.1,0.9-0.2,1.8-0.2,2.7
	c0.1,0.8,0,1.6-0.2,2.4C0.4,402,0,411.5,0,421C-0.1,481.4,14.5,541,42.5,594.5l0.4,0.7c28.4,53.8,69.5,100,119.6,134.5
	c39.9,27.5,84.8,46.9,132.1,57.2l8.3,1.7c11.4,2.2,23,3.9,34.8,5c12,1.2,24.2,1.7,36.5,1.8c17.2,0,34.3-1.2,51.3-3.5h301.8
	C728.3,780.8,728.9,769.7,728.8,758.7z"/>
<path class="st7" d="M574,126.1c-3.6-0.7-7.2-0.3-10.5,1.1c-4,1.8-8.6,1.8-12.7,0c-4.8-2.1-10.2-2-14.9,0.3
	c-1.3,0.7-2.8,1.1-4.3,1.1c-6,0-11.1-6.1-12.1-14.1c1.2-0.9,2.2-2,3-3.2c3.5-5.7,9-9.4,15.2-9.4s11.6,3.6,15.1,9.2
	c2.1,3.5,5.9,5.5,10,5.5h0.2C567.9,116.7,572,120.5,574,126.1z"/>
<path class="st7" d="M594.1,117.9c-1.8,6.3-6.2,10.7-11.4,10.7c-1.5,0-2.9-0.4-4.2-1.1c-4.6-2.2-10-2.3-14.8-0.3
	c-2,0.9-4.1,1.3-6.3,1.3c-1.6,0-3.3-0.3-4.8-0.8c-0.3-0.1-0.5-0.2-0.8-0.3s-0.5-0.2-0.7-0.3c-0.1,0-0.1-0.1-0.2-0.1
	c-0.3-0.1-0.5-0.2-0.8-0.3c-0.2-0.1-0.5-0.2-0.8-0.3c-4.3-1.4-9.1-1.1-13.2,0.9c-1.3,0.7-2.8,1.1-4.3,1.1c-0.8,0-1.6-0.1-2.4-0.4
	c-0.1,0-0.2-0.1-0.3-0.1s-0.2-0.1-0.4-0.1c-4.7-1.7-8.2-7.1-9-13.8c-0.1-1-0.2-1.9-0.2-2.9c0-9.5,5.5-17.2,12.3-17.2h0.3
	c4.1,0.1,7.9-1.9,10-5.4c0.4-0.6,0.8-1.3,1.3-1.9C561.2,96,578.1,106.3,594.1,117.9z"/>
<path class="st7" d="M71.1,263.5c-1.1-0.2-2.3-0.3-3.5-0.3c-2.4,0-4.8,0.5-7.1,1.5c-0.2,0.1-0.4,0.2-0.7,0.3
	c-1.8,0.7-3.7,1.1-5.6,1.1c-1.6,0-3.1-0.2-4.7-0.7c-0.3-0.1-0.5-0.2-0.8-0.3c-0.3-0.1-0.6-0.2-0.9-0.4l-0.8-0.3l-0.8-0.3
	c-3.9-1.3-8.2-1.2-12,0.3c3.3-7.2,6.9-14.3,10.7-21.3c1.9,1.6,3.6,3.4,4.9,5.5c2.1,3.5,5.9,5.5,10,5.5h0.2c0.6,0,1.1,0.1,1.7,0.2
	c1.1,0.2,2.1,0.6,3,1.1l0,0C67.7,257.2,70,260.1,71.1,263.5z"/>
<path class="st7" d="M92,248.8c0,9.5-5.5,17.2-12.3,17.2c-1.5,0-2.9-0.4-4.2-1c-2.4-1.2-5.1-1.8-7.8-1.7c-2.4,0-4.7,0.5-6.9,1.4
	c-0.3,0.1-0.6,0.3-0.9,0.4c-1.7,0.7-3.5,1-5.4,1c-1.4,0-2.9-0.2-4.3-0.6l-0.6-0.2c-0.3-0.1-0.5-0.2-0.8-0.3
	c-0.3-0.1-0.5-0.2-0.8-0.3l-0.2-0.1c-0.3-0.1-0.5-0.2-0.8-0.3l-0.8-0.3l-0.7-0.2c-3.8-1.1-7.8-0.8-11.4,0.7c0-0.1,0-0.1,0.1-0.2
	c3.3-7.2,6.9-14.3,10.7-21.3c3.6-6.6,7.3-13,11.3-19.4c1.2-1.9,2.4-3.8,3.6-5.7c3,1.2,5.7,3.2,7.8,5.7l-3.7,6.8l5.9-3.8
	c1.4,2,3.4,3.6,5.8,4.4l-1.4,2.6l3.3-2.1c0.7,0.1,1.3,0.2,2,0.2h0.2c2.1,0,4.2,0.8,5.9,2.1l-4,7.4l-1.9,3.4l8-5.1l1.8-1.1
	c0.2,0.3,0.3,0.6,0.4,0.9C91.3,242.2,92,245.5,92,248.8z"/>
<ellipse class="st8" cx="988.8" cy="549.5" rx="35.8" ry="46.8"/>
<ellipse class="st8" cx="988.8" cy="492.2" rx="35.8" ry="46.9"/>
<ellipse class="st8" cx="988.8" cy="435" rx="35.8" ry="46.9"/>
<ellipse class="st8" cx="988.8" cy="377.7" rx="35.8" ry="46.9"/>
<ellipse class="st8" cx="988.8" cy="320.4" rx="35.8" ry="46.9"/>
<path class="st8" d="M956.3,243.6c-2.2,6.3-3.3,12.9-3.3,19.6c-0.1,10,2.5,19.9,7.5,28.6c6.5,11.1,16.8,18.2,28.3,18.2
	s21.8-7.1,28.3-18.2c4.8-8.4,7.4-17.8,7.5-27.5c-10.2-4.6-20.6-8.6-31.3-11.9c-7.4-2.3-14.9-4.3-22.6-6L956.3,243.6z"/>
<path class="st8" d="M970.7,246.4c7.6,1.7,15.2,3.7,22.6,6c-1.5,0.2-3,0.4-4.5,0.4C982.2,252.7,975.9,250.5,970.7,246.4z"/>
<ellipse class="st4" cx="321.8" cy="541.5" rx="35.8" ry="46.8"/>
<ellipse class="st4" cx="321.8" cy="484.2" rx="35.8" ry="46.9"/>
<ellipse class="st4" cx="321.8" cy="427" rx="35.8" ry="46.9"/>
<ellipse class="st4" cx="321.8" cy="369.7" rx="35.8" ry="46.9"/>
<ellipse class="st4" cx="321.8" cy="312.4" rx="35.8" ry="46.9"/>
<ellipse class="st4" cx="321.8" cy="255.2" rx="35.8" ry="46.9"/>
<ellipse class="st4" cx="321.8" cy="197.9" rx="35.8" ry="46.8"/>
<ellipse class="st4" cx="321.8" cy="152.5" rx="35.8" ry="46.9"/>
<path class="st4" d="M306.6,52.8c-5.4,3.5-10,8.2-13.2,13.8c-1.2,2-2.3,4.2-3.2,6.4c-2.9,7-4.3,14.5-4.3,22.1v0.2
	c-0.1,10,2.5,19.9,7.5,28.6c6.5,11.1,16.8,18.2,28.3,18.2s21.8-7.1,28.3-18.2c9.9-17.8,9.9-39.5,0-57.3c-0.7-1.2-1.4-2.3-2.2-3.4
	c-4-5.8-9.6-10.3-16.1-12.9c-0.9-0.3-1.8-0.6-2.7-0.9l0,0L306.6,52.8z"/>
<path class="st4" d="M329.2,49.4L329.2,49.4c1.8-0.2,3.6-0.4,5.5-0.6l22.3-1.7c-0.7,4.5-1.8,8.8-3.5,13c-0.9,2.2-2,4.4-3.2,6.5
	c-6.5,11.1-16.8,18.2-28.3,18.2c-3.7,0-7.3-0.7-10.7-2.1c-6.2-2.7-11.6-7.1-15.4-12.7c-0.8-1.1-1.5-2.2-2.2-3.4
	c-1.9-3.2-3.4-6.6-4.6-10.1c5.9-1.4,11.8-2.6,17.7-3.7L329.2,49.4z"/>
<ellipse class="st4" cx="91.8" cy="400.5" rx="35.8" ry="46.9"/>
<ellipse class="st4" cx="91.8" cy="343.2" rx="35.8" ry="46.9"/>
<ellipse class="st4" cx="91.8" cy="286" rx="35.8" ry="46.9"/>
<path class="st4" d="M127.6,228.7c0.1,10-2.5,19.9-7.5,28.6c-6.6,11.1-16.8,18.2-28.3,18.2c-9.3,0-17.8-4.7-24.2-12.3v-0.1
	c-1.5-1.8-2.9-3.8-4.1-5.8c-0.6-1-1.2-2.1-1.7-3.2c-3.9-7.9-5.8-16.7-5.8-25.5c0-1.7,0.1-3.4,0.2-5.1c1.2-1.9,2.4-3.8,3.6-5.7
	c2.6-4,5.2-7.9,7.9-11.7c5.7-8.1,11.7-16,18-23.6c2-0.4,4-0.7,6-0.7c11.5,0,21.8,7.1,28.3,18.2C125.1,208.7,127.7,218.6,127.6,228.7
	z"/>
<path class="st4" d="M127.6,171.4c0.1,10-2.5,19.9-7.5,28.6c-6.6,11.1-16.8,18.2-28.3,18.2c-9.3,0-17.7-4.6-24-12.1
	c5.7-8.1,11.7-16,18-23.6c11-13.3,22.9-25.8,35.6-37.4C125.6,153.2,127.7,162.3,127.6,171.4z"/>
<path class="st8" d="M303,788.5c11.4,2.2,23,3.9,34.8,5c12,1.2,24.2,1.8,36.5,1.8c17.2,0,34.3-1.2,51.3-3.5H866
	c1.2,0.2,2.4,0.4,3.6,0.5c126.6,18.6,249.5-51.6,297.9-170c-7.8-5.1-15.7-10-23.6-14.8s-16.1-9.4-24.4-13.8c-1.2-0.7-2.5-1.3-3.8-2
	c-15.3-7.9-31.3-14.7-47.7-20.1c-7.1-2.3-14.3-4.3-21.5-6c-3.4-0.8-6.8-1.5-10.2-2.1c-4.3-0.8-8.6-1.4-13-1.9
	c-11.4-1.4-23-1.6-34.4-0.7l0,0c-2.1,0.2-4.2,0.4-6.3,0.6c-4.1,0.5-8.1,1.1-12.2,1.9c-5,1-9.9,2.2-14.8,3.7
	c-41.7,12.4-77.8,40.1-115.2,63.2l-1.4,0.9c-38.8,23.7-80.2,42.8-123.5,56.7c-8.1,2.6-16.2,5-24.4,7.3c-9.3,2.6-18.7,4.9-28.1,7
	c-1.8,0.4-3.6,0.8-5.4,1.2c-7.2,1.5-14.4,2.9-21.7,4.2c-44.2,7.7-89.1,10.2-133.8,7.5c-6.7-0.4-13.3-0.9-20-1.6
	c-8.9-0.9-17.7-1.9-26.5-3.2l0,0l-1.8-0.3c-7.6-1.1-15.3-2.4-22.9-3.7c-9.1-1.5-18.3-3.1-27.4-4.3c-3.1-0.4-6.2-0.8-9.3-1.2
	c-9.7-1.1-19.5-1.7-29.4-1.6c-1.5,0-3.1,0.1-4.7,0.1c-16.7,0.7-33.7,3.9-48.8,10.6l-0.9,0.4c-8,3.6-15.5,8.2-22.1,13.9
	c-1.9,1.6-3.7,3.4-5.5,5.2c-12.9,13.3-20.6,29.7-27,46.8c12.8,4.3,25.8,7.9,39,10.7L303,788.5z"/>
<circle class="st9" cx="389" cy="249.6" r="2"/>
<circle class="st9" cx="186" cy="251.6" r="2"/>
<circle class="st9" cx="615" cy="355.6" r="2"/>
<circle class="st9" cx="767" cy="285.6" r="2"/>
<path class="st8" d="M303,788.5c2.4-9.1,3.6-18.4,3.6-27.8c0-2.4-0.1-4.8-0.2-7.2c3.1-10.3,4.7-20.9,4.6-31.7
	c0-3.9-0.2-7.8-0.6-11.6c0-0.2,0-0.4-0.1-0.6c-1.4-12.8-5.2-25.3-11-36.8L254,687l-17.6,5.5l13.2-7.8l42-24.7
	c-18.8-27.1-48.8-44.3-81.7-46.6c-2.6-3.9-5.4-7.7-8.5-11.2L166.6,613L111,630.3l47.7-28l26.4-15.6c-42.7-32.7-102.8-29.3-141.5,7.9
	l0,0l-0.6,0.6c28.4,53.9,69.5,100,119.6,134.5c39.9,27.5,84.8,46.9,132.1,57.1L303,788.5z"/>
<path class="st4" d="M510.2,791.8h-83.8c9.8-16.1,24.9-26.5,41.9-26.5S500.4,775.7,510.2,791.8z"/>
<path class="st10" d="M510.2,791.8h-83.8c9.8-16.1,24.9-26.5,41.9-26.5S500.4,775.7,510.2,791.8z"/>
<path class="st8" d="M303,788.5c11.4,2.2,23,3.9,34.8,5c12,1.2,24.2,1.8,36.5,1.8c17.2,0,34.3-1.2,51.3-3.5h194.7
	c7.4-15,11.2-31.4,11.2-48.1c0-2.4-0.1-4.8-0.2-7.2c2.9-9.4,4.4-19.2,4.7-29c0-0.9,0-1.7,0-2.6c0-17-4-33.8-11.7-49l-63,19.6
	l55.3-32.5c-18.8-27.1-48.8-44.3-81.7-46.6c-1.3-2.1-2.8-4.1-4.3-6c-0.4-0.5-0.8-1.1-1.2-1.6c-1-1.2-2-2.4-3-3.6l-2.5,0.8L436,613.3
	l72.4-42.6l1.7-1c-23.8-18.2-54-25.8-83.5-21c-1.7,0.2-3.3,0.6-5,0.9c-14.7,3.1-28.5,9.1-40.7,17.8c-20.6,14.6-35.4,35.9-42,60.3
	l23,26.5l8.3,9.6l18.6,21.5l14.5,16.7l13,14.9l-22.3-16l-31.2-22.6l-30.6-22.1c-10.9,7.7-20.3,17.4-27.7,28.6
	c-8,12-13.5,25.4-16.2,39.5c-4,21.1-1.8,42.9,6.4,62.7L303,788.5z"/>
<path class="st8" d="M676.1,755.1c6.5-10.7,0.3-24.5-6.9-34.6s-16.2-20.8-15.4-33.2c1.1-17.9,20.7-27.6,36.3-36.4
	c11.6-6.5,22.4-14.4,32.2-23.5c3.9-3.6,7.7-7.5,10.1-12.3c3.5-6.9,3.8-14.8,3.9-22.5c0.5-25.6,0.4-51.2-0.2-76.9L676.1,755.1z"/>
<path class="st11" d="M1091.8,471.8c3.8,8.5,7.5,17.1,11.1,25.7c6.3,15,12.5,30.1,18.3,45.3c2.8,7.2,5.6,14.7,5,22.3
	c-0.4,5.3-2.4,10.4-4.7,15.2l-0.2,0.5c-1.7,3.7-3.6,7.4-5.6,11c-3.3,6-7.1,11.8-11.1,17.4c-1.2,1.7-2.5,3.4-3.8,5.1
	c-5.1,6.5-11,13.5-15.2,20.8c-3.4,5.9-5.7,11.9-5.8,18.1c-0.1,2.9,0.4,5.8,1.3,8.5c4,11.8,16.3,18.2,26.9,24.9
	c5,3,9.6,6.9,13.5,11.3"/>
<circle class="st8" cx="1092.7" cy="471.4" r="28"/>
<circle class="st8" cx="1142.2" cy="518" r="28"/>
<circle class="st8" cx="1093.5" cy="583.5" r="28"/>
<circle class="st8" cx="1107.7" cy="652.3" r="28"/>
<path class="st11" d="M860.5,660.1c1.9-12.3-9-22.8-19.6-29.4s-23-13-27-24.9c-5.8-17,8.6-33.4,19.7-47.5
	c8.3-10.5,15.2-21.9,20.8-34c2.2-4.8,4.3-9.9,4.7-15.2c0.6-7.7-2.2-15.2-5-22.3c-9.2-23.9-19.1-47.6-29.4-71"/>
<circle class="st8" cx="825.7" cy="415.4" r="28"/>
<circle class="st8" cx="875.2" cy="462" r="28"/>
<circle class="st8" cx="826.5" cy="527.5" r="28"/>
<circle class="st8" cx="840.7" cy="596.3" r="28"/>
<path class="st12" d="M370.9,565.8c2.9-4.4,0.6-10.3-2.2-14.7s-6.4-9.1-5.9-14.3c0.8-7.5,9.2-11.2,16-14.7c5-2.5,9.7-5.6,14-9.3
	c1.8-1.4,3.3-3.1,4.5-5c1.6-2.8,1.9-6.2,2.1-9.4c0.7-10.8,1.2-21.6,1.4-32.4"/>
<circle class="st4" cx="401.1" cy="466.1" r="11.8"/>
<circle class="st4" cx="411.7" cy="492.7" r="11.8"/>
<circle class="st4" cx="381.4" cy="509.1" r="11.8"/>
<circle class="st4" cx="374.6" cy="537.9" r="11.8"/>
<linearGradient id="SVGID_2_" gradientUnits="userSpaceOnUse" x1="661.4202" y1="340.4585" x2="661.4202" y2="743.6755" gradientTransform="matrix(1 0 0 -1 162 743.67)">
	<stop  offset="0" style="stop-color:#808080;stop-opacity:0.25"/>
	<stop  offset="0.54" style="stop-color:#808080;stop-opacity:0.12"/>
	<stop  offset="1" style="stop-color:#808080;stop-opacity:0.1"/>
</linearGradient>
<path class="st13" d="M918,368.4c-1.5-8.5-0.8-17.6-4.7-25.3c-0.4-0.9-1-1.7-1.8-2.3c-1-0.5-2.1-0.8-3.2-0.7
	c-3.5-0.2-7-0.2-10.5-0.1c-1,0-2.1,0.2-2.7,1c-0.1,0.1-0.1,0.2-0.1,0.3c-4-4.5-7.1-10.1-11.4-14.3c0.6-0.2,1.2-0.4,1.9-0.6
	c-0.1-0.4-0.1-0.8-0.2-1.2l-0.1-0.4c-0.1-0.3-0.2-0.6-0.2-0.8c-0.1-0.3-0.1-0.3-0.1-0.4s-0.2-0.5-0.3-0.8l-0.2-0.4
	c-0.1-0.3-0.2-0.5-0.3-0.8s-0.1-0.2-0.2-0.4l-0.4-0.8c0-0.1-0.1-0.2-0.2-0.3c-0.2-0.3-0.3-0.6-0.4-0.8l-0.2-0.3l-0.5-0.9l-0.1-0.2
	c-0.2-0.3-0.4-0.7-0.6-1l0,0c-1.7-2.8-3.6-5.5-5-8.3c-2.4-5-3.2-10.6-4.8-16s-4.4-10.7-9.3-13.3c-2.3-1.2-5.5-2.2-5.7-4.9
	c0-0.8,0.2-1.7,0.5-2.5c0.7-1.7,1.5-3.3,2.4-4.9c0.3-0.6,0.7-1.1,1.1-1.7c0.1-0.1,0.2-0.3,0.3-0.4c0.3-0.4,0.6-0.8,0.9-1.2l0.4-0.5
	c0.3-0.4,0.6-0.8,1-1.1l0.4-0.4c0.5-0.5,0.9-1,1.4-1.4c0.4-0.3,0.8-0.8,1-1.3c0.1-0.5,0.2-1,0.1-1.6c-0.2-4.2,2-8.2,4.5-11.6
	s5.4-6.7,6.8-10.7c0.2-0.5,0.3-0.9,0.4-1.4c0-0.2,0.1-0.3,0.1-0.5s0.1-0.6,0.2-0.9s0-0.4,0.1-0.5s0.1-0.6,0.1-0.9s0-0.4,0-0.6
	s0-0.6,0-0.9s0-0.4,0-0.6s0-0.6,0-0.9s0-0.4,0-0.6s0-0.6-0.1-0.9s0-0.3,0-0.5c0-0.4-0.1-0.7-0.2-1.1c0-0.1,0-0.2,0-0.4
	c-0.1-0.5-0.2-1-0.3-1.5l0,0c-0.7-3.2-1.6-6.3-2.7-9.3c-0.6-1.9-1.3-3.7-2.3-5.4c0.5-0.1,1.1-0.2,1.7-0.4c-0.3-0.6-0.9-1.4-1.2-2.1
	c3.3-5.2,6.2-10.6,7.6-16.5c0.9-4.2,1.4-8.5,1.6-12.8c0.8-12.9,1.7-25.8,0.6-38.7c0-0.2,0-0.3,0-0.5c0.4-2.8,0.4-5.6,0.1-8.3
	c-0.5-5.4-1.8-10.8-4.7-15.4s-7.7-8.6-12.9-9.1c-0.9,1-1.8,1.9-2.9,2.7c-1.6-1.4-2.8-3.2-3.4-5.2c12.7-2,22.5-12.2,24-25
	c0.1-0.5,0.1-0.9,0.1-1.4c0-0.2,0-0.4,0-0.6s0-0.5,0-0.8v-0.8c0-0.2,0-0.4,0-0.6s0-0.6,0-0.9v-0.5c0-0.3,0-0.6-0.1-1
	c0-0.1,0-0.2,0-0.3c0-0.3-0.1-0.7-0.1-1V69c-0.1-0.4-0.1-0.8-0.2-1.1c0,0,0-0.1,0-0.1c-0.1-0.4-0.2-0.8-0.3-1.2l0,0
	c-0.7-2.7-1.7-5.3-3.1-7.7c1.2-2.6,1.9-5.4,2.3-8.3c0.1-0.5,0.1-1,0.1-1.5c0-0.3,0-0.7,0-1c0-0.2,0-0.3,0-0.5c0-0.4,0-0.8,0-1.3
	v-0.1c-0.2-7.1-3.1-13.9-8-19.1c0.6-1,1-2,1.4-3.1l0,0c0.1-0.3,0.2-0.6,0.3-0.9l0,0c0.1-0.3,0.2-0.6,0.2-0.9c0,0,0,0,0-0.1
	c0.1-0.3,0.1-0.6,0.2-0.8V21c0.1-0.3,0.1-0.7,0.2-1s0.1-0.7,0.1-1c0-0.1,0-0.2,0-0.3s0-0.5,0-0.7v-0.4v-0.7c0-0.1,0-0.2,0-0.3
	c-0.5-9.7-8.9-17.1-18.6-16.6c-8.6,0.5-15.6,7.2-16.5,15.8c-0.2,1.8-0.2,3.6,0.2,5.4c-8.8,4.3-14.9,12.7-16,22.5
	c-0.2,1.6-0.2,3.2-0.2,4.8c-2.6,4-4.1,8.6-4.5,13.4l0,0v0.5c0,0.6-0.1,1.2-0.1,1.8c0,8.9,4.1,17.4,11.1,22.8
	c1.5,2.3,3.4,4.3,5.6,5.9c0.4,1.2,0.7,2.5,0.9,3.7c0.2,3.4-0.8,7-3.4,9.2c-0.7,0.5-1.4,1-2,1.5c-0.7-0.2-1.4-0.2-2.1,0.1
	c-7.7,2.4-15,7.2-18.5,14.5c-0.8,1.7-1.4,3.4-1.8,5.2c-0.1,0.2-0.3,0.4-0.4,0.6c-4.7,7.3-8.1,15.4-10,23.9c-1,4.3-1.6,8.8-3.6,12.8
	c-0.5,0.8-0.9,1.7-1.2,2.6c-0.2,1.4-0.2,2.8-0.2,4.2c-0.2,2.5-1.7,4.8-2.2,7.3c-0.3,1.5-0.2,3-0.5,4.5c-0.5,2.6-1.9,4.9-2.8,7.4
	c-1.6,4.4-1.6,9.2-2.7,13.7c-0.1,0.7-0.5,1.4-0.9,2c-0.8,0.9-2.1,1.1-3.1,1.7c-1.7,1-2.8,2.7-3.1,4.7c-0.3,1.9-0.3,3.9-0.1,5.8
	l0.6,7.5c-2.8,0.8-5.6,1.7-8.4,2.6l-13.9,4.2c-4,1.2-8.1,2.5-11.5,4.9c-3.2,2.2-5.7,5.3-7.2,8.8c-1.6,3.6-2.1,7.6-2.7,11.5
	c-1.6,11-3.5,22-7.1,32.4c-0.3,0.8-0.6,1.6-0.9,2.4l0,0c-0.3,0.8-0.6,1.6-0.9,2.4l-0.2,0.5c-0.3,0.6-0.5,1.3-0.8,1.9
	c-0.4,0.8-0.7,1.6-1.1,2.4l32.4,10.9c0,0.4,0.1,0.8,0.1,1.3c1.1,8,0.6,16.1,1.6,24c0.1,1.3,0.4,2.6,0.9,3.9
	c-0.8,0.7-1.4,1.7-1.7,2.7c-0.4,1.7-0.4,3.5-0.2,5.2c0.4,4.1,0.7,8.1,1.1,12.2c0.2,1.5,0.2,3,0,4.5c-0.4,2.7-1.9,5-2.8,7.6
	s-0.8,5.9,1.3,7.5c1.5,1,3.4,1.2,5.1,0.5c1.6-0.8,3.1-1.9,4.2-3.3c6.5-7.2,9.5-17,14.5-25.4c1.3-1.9,2.5-4,3.5-6.1
	c0.7-1.6,1.1-3.3,1.7-5c0.8-2.2,1.7-4.4,2.8-6.5c0.6-1.2,2.9-4.1,2.4-5.5c-0.8-2.3-9.7-4.3-11.9-5c-1.4-0.5-3-0.9-4.4-0.2
	c-0.2,0.1-0.4,0.2-0.6,0.4c-0.2-3.3-0.5-6.6-0.8-9.8c1.3-0.1,2.6-0.3,3.9-0.5c0-1.9-0.1-3.7-0.1-5.6l-0.1-5.1
	c-0.1-4.1-0.2-8.3-0.3-12.4c0-2.4-0.2-4.8-0.5-7.2c-0.5-3.7-1.6-7.2-2-10.9c0.5-0.4,1.2-0.7,1.8-0.8l0,0c1-0.2,2.1-0.2,3.2-0.1h0.8
	c4.6,0.1,9.1-1.5,13.1-3.6c4.1-2.1,7.9-4.8,11.9-7c0.5-0.3,1-0.5,1.5-0.8l0.6-0.3l1-0.5l0.8-0.4l0.2-0.1c2.4-1.1,4.8-2.2,7-3.5
	c0.2,0.3,0.3,0.5,0.5,0.7c1.1,1.6,3.1,2.3,5,1.8c-2.8,6.8-6.1,13.3-6.9,20.6c-1.2,10.6,3,20.9,7.2,30.7l13.2,31.2
	c1.5,3.5,3.4,7.3,7,8.1c2.2,0.5,4.6-0.3,6.6-1.3c6-2.9,11.5-7,17-10.9c0.1,0.1,0.2,0.1,0.2,0.2c5,4,8.2,9.5,11.6,14.8l9.3,15.2
	c-0.1,0.8,0.1,1.5,0.4,2.2c0.7,1.3,1.6,2.4,2.6,3.4c5.9,6.3,9.8,14.3,11.2,22.8c0.3,2.2,0.6,4.5,1.8,6.2c2.5,3.5,7.8,3.2,11.5,1.3
	c1.1-0.5,2.1-1.4,2.9-2.4c0.6-1.1,1-2.3,1.2-3.6c0.7-3.1,1-6.4,1.1-9.6C921.3,380.2,919.1,374.4,918,368.4z M864.8,88.2
	c0.6-0.4,1.3-0.9,1.9-1.4c-1.3,3.8-3.3,7.3-6,10.2l0,0c-0.6,0.7-1.3,1.3-2,2c0-0.2,0-0.3,0-0.5c-0.1-1.5,0-3.1,0-4.7
	C861.1,92.4,863.2,90.4,864.8,88.2z M812.3,205.5c0-0.1,0.1-0.2,0.1-0.3c0.5,0.4,1,0.9,1.3,1.4c-0.7,1.6-0.7,3.5,0.2,5
	c0.8,1.3,2.2,2.5,1.9,4s-2.2,2.1-3.8,2.3c-2,0.3-4,0.7-6,1.1c0,0,0-0.1,0-0.1c0-1.7-0.2-3.3-0.7-5
	C808.8,212.6,810.9,209.1,812.3,205.5z"/>
<path class="st8" d="M874.2,32.4c5-8.4,2.2-19.2-6.2-24.2s-19.2-2.2-24.2,6.2c-1.2,2.1-2,4.4-2.3,6.9c-0.2,1.8-0.2,3.6,0.2,5.3
	c-8.8,4.2-14.8,12.6-16,22.2c-0.2,1.6-0.2,3.2-0.2,4.8c-8.5,13.1-4.8,30.7,8.3,39.3c13.1,8.5,30.7,4.8,39.3-8.3
	c3-4.6,4.6-10,4.6-15.5c0-0.4,0-0.9,0-1.3C884.9,56.5,883.5,41.9,874.2,32.4L874.2,32.4z"/>
<g class="st14">
	<path d="M841.4,22.1l0.2-0.1c0-0.3-0.1-0.6-0.1-0.9v0.2C841.4,21.5,841.4,21.8,841.4,22.1z"/>
	<path d="M882,51c-0.5,4.3-2,8.5-4.4,12.1c0,0.4,0,0.9,0,1.3c-0.2,15.7-13.1,28.2-28.8,27.9c-14.5-0.2-26.4-11.3-27.8-25.7
		c-0.1,0.8-0.1,1.5-0.1,2.3c-0.3,15.7,12.2,28.6,27.8,28.9c15.7,0.3,28.6-12.2,28.9-27.8c0-0.4,0-0.7,0-1.1c0-0.4,0-0.9,0-1.3
		c2.4-3.6,3.8-7.7,4.3-12c0.2-1.9,0.3-3.8,0.1-5.7C882.1,50.2,882.1,50.6,882,51z"/>
	<path d="M876.5,21c-0.3,2.4-1.1,4.7-2.3,6.8c0.5,0.5,1,1,1.4,1.6c0.5-1.3,0.8-2.6,0.9-3.9C876.7,24,876.7,22.5,876.5,21z"/>
</g>
<path class="st15" d="M759.8,336.8c0.1,1.6,0.6,3.2,1.3,4.7c0.7,1.5,2.1,2.5,3.8,2.8c1.5,0,2.9-0.4,4.2-1.2c2.5-1.3,5.2-2.9,6.5-5.4
	c1.3-2.5,1.1-5.4,0.9-8.1l-1.7-21.6c-4.1-0.1-8.2-0.1-12.3,0.1s-4.8,1.2-4.2,5.1C759.3,321,758.8,328.9,759.8,336.8z"/>
<path class="st15" d="M879.7,351.4l9.7,15.7c0.4,0.9,1.2,1.6,2.1,2c0.7,0.1,1.4,0,2-0.4c3.2-1.4,5.7-4.1,8.1-6.7
	c1.6-1.8,3.3-3.6,3.9-6c0.6-2.6-0.1-5.3-1.9-7.2c-1.1-1-2.4-1.9-3.7-2.6c-7.7-5.2-11.2-15-18.7-20.4c-0.4-0.4-1-0.6-1.5-0.7
	c-0.6,0-1.1,0.2-1.6,0.5l-10.4,5.7c-4.5,2.5-3.1,2.7,0.3,5.4C873.1,340.8,876.3,346.2,879.7,351.4z"/>
<path class="st8" d="M780.9,324.3c-1.4-0.5-3-0.8-4.4-0.2c-1.3,0.8-2.1,2.1-2.3,3.6c-0.3,1.4-0.2,2.9-0.6,4.3
	c-0.7,2.4-2.5,4.2-4.2,6c-0.7,0.8-1.6,1.5-2.7,1.9c-1.4,0.4-2.9-0.3-4.3,0c-1.7,0.4-3,1.8-3.4,3.5c-0.4,1.7-0.4,3.4-0.2,5.1
	l1.1,12.1c0.2,1.5,0.2,3,0,4.4c-0.4,2.6-2,5-2.8,7.5c-0.8,2.5-0.8,5.8,1.3,7.4c1.5,1,3.4,1.2,5.1,0.5c1.6-0.7,3.1-1.8,4.2-3.2
	c6.5-7.1,9.5-16.8,14.6-25.1c1.3-1.9,2.5-3.9,3.5-6c0.7-1.6,1.1-3.3,1.7-5c0.8-2.2,1.7-4.4,2.8-6.4c0.6-1.2,2.9-4,2.4-5.4
	C792.1,327,783.2,325,780.9,324.3z"/>
<path class="st8" d="M899,357.5c-1.5,2.8-3.9,4.9-6.9,5.9c-0.8,0.2-1.6,0.6-2.3,1.2c-0.9,1.1-1.1,2.7-0.4,4c0.7,1.2,1.6,2.4,2.6,3.3
	c5.9,6.2,9.8,14.1,11.2,22.5c0.3,2.1,0.6,4.4,1.8,6.1c2.5,3.4,7.8,3.2,11.5,1.2c1.1-0.5,2.1-1.3,2.9-2.3c0.6-1.1,1-2.3,1.2-3.6
	c0.7-3.1,1-6.3,1.1-9.4c-0.1-6-2.3-11.7-3.4-17.6c-1.5-8.4-0.8-17.4-4.7-25c-0.4-0.9-1-1.7-1.8-2.2c-1-0.5-2.1-0.8-3.2-0.7
	c-3.5-0.1-7-0.2-10.6-0.1c-1,0-2.2,0.1-2.7,1s-0.1,2,0.4,2.9C898.1,349,901.6,352.4,899,357.5z"/>
<path class="st8" d="M815.4,207.5c-2,1.7-2.6,4.6-1.3,6.9c0.8,1.3,2.2,2.5,1.9,4s-2.2,2.1-3.8,2.3c-13.7,2.2-26.9,6.2-40.2,10.1
	l-13.9,4.2c-4,1.2-8.1,2.5-11.5,4.8c-3.2,2.2-5.7,5.2-7.3,8.7c-1.6,3.6-2.1,7.5-2.7,11.3c-2.1,14.2-4.7,28.5-11.1,41.4l33.7,11
	c3.3,1.2,6.6,2.1,10.1,2.5c3.3,0.3,6.6,0.1,9.8-0.5c-0.2-7.5-0.3-15.3-0.5-22.8c0-2.4-0.2-4.8-0.5-7.1c-0.5-3.6-1.6-7.1-2-10.7
	c1.5-1.3,3.8-1,5.8-0.9c4.6,0.1,9.1-1.5,13.2-3.6c4.1-2.1,7.9-4.7,12-6.9c6.8-3.6,14.5-6,19.6-11.6c-2.6,10-8.8,18.8-10,29.1
	s3,20.6,7.2,30.2l13.3,30.8c1.5,3.4,3.4,7.2,7,8c2.2,0.5,4.6-0.3,6.7-1.3c12.2-5.7,22-16.5,35-19.9c-1-6.5-6.1-11.8-9-17.6
	c-2.4-4.9-3.2-10.5-4.8-15.7c-1.6-5.3-4.4-10.6-9.3-13.1c-2.3-1.2-5.5-2.2-5.7-4.8c0-0.8,0.2-1.7,0.5-2.4c1.8-4.4,4.5-8.3,7.9-11.5
	c0.4-0.3,0.8-0.8,1-1.3c0.1-0.5,0.2-1,0.1-1.5c-0.2-4.2,2-8.1,4.5-11.5s5.4-6.6,6.8-10.5c2.4-6.8,0-14.3-2.4-21.1
	c-1-2.8-2-5.6-4-7.7c-3.1-3.3-8-4.3-12.5-4.8C844.3,202.3,827,198.4,815.4,207.5z"/>
<g class="st14">
	<path d="M871.1,237.3c-2.5,3.4-4.8,7.3-4.5,11.5c0.1,0.5,0.1,1-0.1,1.5c-0.2,0.5-0.6,1-1,1.3c-3.5,3.2-6.2,7.1-7.9,11.5
		c-0.4,0.8-0.5,1.6-0.5,2.4c0.1,1.6,1.4,2.7,3,3.5c1.5-2.5,3.4-4.7,5.5-6.7c0.4-0.3,0.8-0.8,1-1.3c0.1-0.5,0.2-1,0.1-1.5
		c-0.2-4.2,2-8.1,4.5-11.5s5.4-6.6,6.8-10.5c1.2-3.9,1.3-8,0.4-11.9c-0.1,0.4-0.2,0.8-0.4,1.2C876.5,230.7,873.6,233.9,871.1,237.3z
		"/>
	<path d="M813.8,209.5c1-0.2,1.8-0.9,2.2-1.9c0-0.2,0-0.4,0-0.6c-0.2,0.2-0.4,0.3-0.6,0.5C814.7,208.1,814.2,208.8,813.8,209.5z"/>
	<path d="M769.3,304c-3.4-0.5-6.8-1.3-10.1-2.5l-29.7-9.8c-1.1,3.2-2.5,6.4-4,9.4l33.7,11c3.3,1.2,6.6,2.1,10.1,2.5
		c3.3,0.3,6.6,0.1,9.8-0.5c-0.1-3.5-0.2-7.1-0.3-10.7C775.7,304.1,772.5,304.3,769.3,304z"/>
	<path d="M850.8,336.7c-2.1,1-4.4,1.8-6.7,1.3c-3.6-0.8-5.5-4.6-7-8l-13.3-30.8c-2.9-6.8-5.9-13.8-6.9-21c-0.1,0.5-0.2,1-0.2,1.5
		c-1.2,10.4,3,20.6,7.2,30.2l13.3,30.8c1.5,3.4,3.4,7.2,7,8c2.2,0.5,4.6-0.3,6.7-1.3c12.2-5.7,22-16.5,35-19.9
		c-0.5-3.4-2.1-6.4-4-9.4C870.7,322.5,861.7,331.6,850.8,336.7z"/>
	<path d="M826.8,239.9c-5.2,5.6-12.9,8.1-19.6,11.6c-4.1,2.1-7.9,4.8-12,6.9c-4.1,2.1-8.6,3.7-13.2,3.6c-2-0.1-4.3-0.4-5.8,0.9
		c0.3,3.4,1.3,6.6,1.8,9.9c1.3-0.2,2.7-0.2,4-0.1c4.6,0.1,9.1-1.5,13.2-3.6c4.1-2.1,7.9-4.7,12-6.9c4.5-2.4,9.3-4.2,13.6-6.8
		C822.9,250.4,825.3,245.3,826.8,239.9z"/>
</g>
<path class="st15" d="M838.6,101.1c0.2,3.4-0.8,6.9-3.4,9.1c-0.8,0.7-1.8,1.2-2.6,1.9c-2.7,2.8-2.6,7.2,0.1,9.9
	c0.3,0.3,0.6,0.5,0.9,0.7c2.7,1.6,6.1,1.2,9.2,0.7c4.1-0.6,8.1-1.6,12-3.1c3.9-1.5,7.2-4.3,9.5-7.8c-3.4-1.9-5.2-5.8-5.4-9.7
	s0.8-8.2-1.6-11.2s-6.7-2.9-10.2-1.9c-1.8,0.5-3.5,1.2-5.3,1.7c-0.9,0.2-3.9,0.2-4.5,0.9C836,93.5,838.5,99.1,838.6,101.1z"/>
<path class="st10" d="M838.6,101.1c0.2,3.4-0.8,6.9-3.4,9.1c-0.8,0.7-1.8,1.2-2.6,1.9c-2.7,2.8-2.6,7.2,0.1,9.9
	c0.3,0.3,0.6,0.5,0.9,0.7c2.7,1.6,6.1,1.2,9.2,0.7c4.1-0.6,8.1-1.6,12-3.1c3.9-1.5,7.2-4.3,9.5-7.8c-3.4-1.9-5.2-5.8-5.4-9.7
	s0.8-8.2-1.6-11.2s-6.7-2.9-10.2-1.9c-1.8,0.5-3.5,1.2-5.3,1.7c-0.9,0.2-3.9,0.2-4.5,0.9C836,93.5,838.5,99.1,838.6,101.1z"/>
<circle class="st15" cx="848.9" cy="80.9" r="19.9"/>
<path class="st15" d="M786,233.9c-0.4,1.6-1,3.1-1.9,4.4c-2.3,4.1-3.2,8.9-2.4,13.6c0.9,4.7,4,8.7,8.4,10.6c1.9,0.7,4.2,0.9,5.7-0.4
	c-2.7-3.5-2.8-8.2-2.6-12.6c0-0.8,0.1-1.6,0.6-2.3c0.4-0.7,1.3-0.9,2-0.4c0,0,0.1,0,0.1,0.1c-0.1,2.7,0.5,5.5,1.6,8
	c0.4,1,1.1,2,2.2,2c1.5,0,1.9-2.1,1.9-3.6c-0.2-6.2-0.5-12.6-3.5-18c-1.1-2-2.5-3.8-3-6.1c0-0.8-0.3-1.5-0.8-2.1
	c-0.3-0.3-0.7-0.4-1.1-0.5c-1.7-0.5-5.8-2-7.2-0.4S786.2,231.8,786,233.9z"/>
<path class="st16" d="M815.6,127.9c-2.3-0.2-4.1,1.8-5.3,3.8c-4.7,7.2-8,15.2-9.9,23.5c-1,4.3-1.6,8.7-3.6,12.6
	c-0.5,0.8-0.9,1.7-1.2,2.6c-0.2,1.4-0.2,2.8-0.2,4.1c-0.2,2.5-1.7,4.7-2.2,7.2c-0.3,1.5-0.2,3-0.5,4.4c-0.5,2.6-1.9,4.9-2.8,7.3
	c-1.6,4.3-1.6,9-2.7,13.5c-0.1,0.7-0.5,1.4-0.9,2c-0.8,0.9-2.1,1.1-3.1,1.6c-1.7,1-2.8,2.7-3.1,4.6c-0.3,1.9-0.3,3.8-0.1,5.7
	l0.9,11.8c0.9-0.4,1.6-1.5,2.3-2.1c1.4-1.2,3.6-0.9,5.4-0.6l2.7,0.5c2.8,0.5,5.7,1.1,7.5,3.3c1.4-2.2,0.6-5.4,2.8-6.9
	c0.7-0.5,1.6-0.6,2.3-1c1.4-0.9,2.3-2.5,2.3-4.1c0-1.7-0.2-3.3-0.7-4.9c3.5-1.5,5.6-5,7-8.4c1.5-4.2,2.6-8.6,3.2-13
	c3.1-17.5,6-35.2,6.2-53c0.2-3-0.2-6-1-8.8C819.9,130.7,818.5,128.3,815.6,127.9z"/>
<path class="st10" d="M815.6,127.9c-2.3-0.2-4.1,1.8-5.3,3.8c-4.7,7.2-8,15.2-9.9,23.5c-1,4.3-1.6,8.7-3.6,12.6
	c-0.5,0.8-0.9,1.7-1.2,2.6c-0.2,1.4-0.2,2.8-0.2,4.1c-0.2,2.5-1.7,4.7-2.2,7.2c-0.3,1.5-0.2,3-0.5,4.4c-0.5,2.6-1.9,4.9-2.8,7.3
	c-1.6,4.3-1.6,9-2.7,13.5c-0.1,0.7-0.5,1.4-0.9,2c-0.8,0.9-2.1,1.1-3.1,1.6c-1.7,1-2.8,2.7-3.1,4.6c-0.3,1.9-0.3,3.8-0.1,5.7
	l0.9,11.8c0.9-0.4,1.6-1.5,2.3-2.1c1.4-1.2,3.6-0.9,5.4-0.6l2.7,0.5c2.8,0.5,5.7,1.1,7.5,3.3c1.4-2.2,0.6-5.4,2.8-6.9
	c0.7-0.5,1.6-0.6,2.3-1c1.4-0.9,2.3-2.5,2.3-4.1c0-1.7-0.2-3.3-0.7-4.9c3.5-1.5,5.6-5,7-8.4c1.5-4.2,2.6-8.6,3.2-13
	c3.1-17.5,6-35.2,6.2-53c0.2-3-0.2-6-1-8.8C819.9,130.7,818.5,128.3,815.6,127.9z"/>
<path class="st16" d="M865.8,108.9c-3.3,3.4-7.5,5.9-12.1,7c-4.6,1.1-9.3,1.8-14,2.1c-1.5,0.2-2.9,0.1-4.3-0.4
	c-1.3-0.6-2.4-2.2-1.8-3.6c0.2-0.4,0.4-0.9,0.5-1.3c0-1.2-1.8-1.3-3-0.9c-7.7,2.4-15,7.1-18.6,14.3c-2,4.1-2.7,8.7-3.3,13.1
	c-1.7,11.8-3.3,23.9-1.1,35.6c1.2,6.2,3.5,12.4,3.6,18.7c0.1,3.6-0.5,7.1-0.5,10.7c-0.1,1.2,0.2,2.5,0.9,3.5c0.5,0.6,1.4,1,1.8,1.8
	c0.6,1.3-0.2,3,0.6,4.1c1,1.4,3.2,0.4,4.7-0.6c7.2-4.9,16-7.1,24.7-6.2c10.5,1.1,20.8,6.7,31,3.9c-0.5-0.8-1-1.6-1.3-2.4
	c-5-16.6-4.7-35.2,2.8-50.8c2.6-5.3,6-10.4,7-16.3c0.4-2.7,0.4-5.5,0.1-8.3c-0.5-5.3-1.8-10.7-4.7-15.1S871.1,109.4,865.8,108.9z"/>
<path class="st15" d="M817.6,239c-0.8,2.2-1.2,4.5-1.2,6.8c-0.1,2.2,0,4.4,0.3,6.6c0.2,1.9,0.8,3.7,1.9,5.2c1.2,1.6,3.1,2.3,5,1.8
	c1.5-0.6,2.6-1.8,3-3.3c0.4-1.5,0.7-3,0.9-4.5c0.9-4.5,3.2-8.8,3.3-13.4c0-0.5-0.1-1.1-0.3-1.6c-0.9-1.9-5.1-4-7.2-3.7
	C820.9,233.2,818.5,236.8,817.6,239z"/>
<path class="st10" d="M875.1,125.7c-0.4,4,3.4,6.9,5,10.6c0.6,1.7,0.9,3.5,1,5.4c1.1,12.7,0.2,25.4-0.6,38.1
	c-0.1,4.2-0.7,8.4-1.5,12.6c-2.1,8.7-7.4,16.2-12.6,23.5c-0.8,1.2-1.7,2.3-2.7,3.3c-1.5,1.2-3.2,2.2-5,3l-17.7,8.6
	c-2.2,1-4.3,2.2-6.3,3.6c-2.3,1.8-4.1,4.1-5.2,6.8c-3.4-1.8-7-3.3-10.4-5.1c-0.8-0.4-1.7-1-1.8-1.8c-0.2-1.2,1.1-2,1.9-2.9
	c1.6-1.6,2.1-4,3-6c2.8-6.8,10-11.2,12.6-18.1c1-2.7,1.3-5.7,3.1-7.9c1-1.1,2.1-2.1,3.4-3c2.7-2.3,5.2-4.9,7.5-7.7
	c1-1,1.8-2.3,2.5-3.6c0.8-2,0.5-4.2,0.6-6.3c0.1-6.9,3.3-13.4,5.2-20c1.8-6.3,2.5-12.8,4.9-18.9S868.8,127.3,875.1,125.7z"/>
<path class="st16" d="M877.4,125.7c-0.4,4,3.4,6.9,5,10.6c0.6,1.7,0.9,3.5,1,5.4c1.1,12.7,0.2,25.4-0.6,38.1
	c-0.1,4.2-0.7,8.4-1.6,12.6c-2.1,8.7-7.4,16.2-12.6,23.5c-0.8,1.2-1.7,2.3-2.7,3.3c-1.5,1.2-3.2,2.2-5,3l-17.7,8.6
	c-2.2,1-4.3,2.2-6.3,3.6c-2.3,1.8-4.1,4.1-5.2,6.8c-3.4-1.8-7-3.3-10.4-5.1c-0.8-0.4-1.7-1-1.8-1.8c-0.2-1.2,1.1-2,1.9-2.9
	c1.6-1.6,2.1-4,3-6c2.8-6.8,10-11.2,12.6-18.1c1-2.7,1.3-5.7,3.1-7.9c1-1.1,2.1-2.1,3.4-3c2.7-2.3,5.2-4.9,7.5-7.7
	c1-1,1.8-2.3,2.4-3.6c0.8-2,0.5-4.2,0.6-6.3c0.1-6.9,3.3-13.4,5.2-20c1.8-6.3,2.5-12.8,4.9-18.9S871.1,127.3,877.4,125.7z"/>
<path class="st8" d="M858.8,50.1c-6.1-0.8-12.4,0.5-17.7,3.7c0.8,0,1.6,0.1,2.4,0.2c15.6,1.9,26.6,16,24.8,31.6
	c-1.1,8.8-6.2,16.6-13.9,21.1c15.7,0.5,28.8-11.7,29.3-27.4C884.2,64.5,873.4,51.9,858.8,50.1z"/>
<path class="st8" d="M867.5,65.9c1.4,3.2,1.5,6.7,0.2,9.9c-0.1-0.4-0.3-0.8-0.5-1.2c-3.5-7.8-14.3-11-24.1-7.2
	c-5.8,2.2-9.9,6.4-11.7,11.1c-2.5-7.5,2.6-16.2,11.9-19.8C853.2,54.8,864,58.1,867.5,65.9z"/>
<g class="st14">
	<path d="M867.6,75.2c-0.9-11.2-8.4-20.8-19-24.5c-2.6,0.6-5.2,1.6-7.5,3c0.8,0,1.6,0.1,2.4,0.2C855.1,55.3,864.7,63.8,867.6,75.2z"
		/>
	<path d="M872.2,54.5c-0.9-11.2-8.4-20.8-19-24.5c-2.6,0.6-5.2,1.6-7.5,3c0.8,0,1.6,0.1,2.4,0.2C859.7,34.6,869.3,43,872.2,54.5z"/>
	<path d="M872.3,23.5c-0.6-6.8-5-12.5-11.4-14.8c-1.6,0.4-3.1,1-4.5,1.9c0.5,0,1,0,1.4,0.1C864.8,11.6,870.6,16.7,872.3,23.5z"/>
	<path d="M882.9,71.3c1.2,14.1-8.2,26.9-22,30c-1.9,2.1-4.1,3.9-6.6,5.3c15.6,0.6,28.8-11.6,29.4-27.3
		C883.8,76.7,883.5,74,882.9,71.3L882.9,71.3z"/>
</g>
<path class="st7" d="M957,67c-4-0.7-8-0.3-11.7,1.3c-4.5,2-9.6,2-14.1,0c-5.3-2.3-11.4-2.2-16.6,0.3c-1.5,0.8-3.1,1.2-4.8,1.2
	c-6.7,0-12.3-6.8-13.5-15.7c1.3-1,2.5-2.2,3.4-3.6c3.9-6.3,10-10.4,16.9-10.4s12.9,4,16.8,10.3c2.4,3.8,6.6,6.2,11.2,6.1h0.2
	C950.1,56.5,954.7,60.8,957,67z"/>
<path class="st7" d="M977.4,39l-10.9,6.9l6.6-12c-1.9-1.5-4.2-2.3-6.6-2.3h-0.2c-0.8,0-1.5,0-2.2-0.2l-3.7,2.3l1.6-2.9
	c-2.6-0.9-4.9-2.6-6.4-4.9l-6.6,4.2l4.2-7.6c-3.8-4.6-9-7.5-14.8-7.5c-6.8,0-13,4.1-16.9,10.4c-2.4,3.9-6.6,6.1-11.2,6H910
	c-7.6,0-13.7,8.6-13.7,19.2s6.1,19.2,13.7,19.2c1.7,0,3.3-0.4,4.8-1.2c5.2-2.5,11.3-2.6,16.6-0.3c2.2,1,4.6,1.5,7.1,1.5
	c2.4,0,4.8-0.5,7-1.5c5.3-2.3,11.3-2.2,16.4,0.3c1.5,0.8,3.1,1.2,4.7,1.2c7.6,0,13.7-8.6,13.7-19.2C980.3,46.6,979.3,42.6,977.4,39z
	"/>
<path class="st7" d="M1040,195.5c-5.6-1.1-11.5-0.4-16.8,1.8c-6.4,2.9-13.7,2.9-20.1,0c-7.6-3.3-16.2-3.2-23.7,0.5
	c-2.1,1.1-4.4,1.7-6.8,1.7c-9.6,0-17.6-9.7-19.2-22.4c1.9-1.4,3.5-3.2,4.8-5.2c5.6-9.1,14.3-14.9,24.1-14.9s18.4,5.8,24,14.7
	c3.4,5.5,9.5,8.8,16,8.8h0.2C1030.1,180.5,1036.7,186.6,1040,195.5z"/>
<path class="st7" d="M1069.2,155.5l-15.5,9.9l9.4-17.1c-2.7-2.1-6-3.3-9.4-3.4h-0.2c-1.1,0-2.2-0.1-3.2-0.2l-5.3,3.3l2.3-4.1
	c-3.7-1.3-7-3.8-9.2-7l-9.4,6l6-10.8c-5.5-6.6-12.9-10.7-21.1-10.7c-9.8,0-18.5,5.8-24.1,14.9c-3.4,5.5-9.5,8.8-16,8.6h-0.5
	c-10.8,0-19.6,12.3-19.6,27.4s8.8,27.4,19.6,27.4c2.4,0,4.7-0.6,6.8-1.7c7.4-3.6,16.1-3.8,23.7-0.5c6.4,2.9,13.7,2.9,20.1,0.1
	c7.5-3.3,16.1-3.1,23.5,0.4c2.1,1.1,4.4,1.7,6.7,1.7c10.8,0,19.6-12.2,19.6-27.4C1073.4,166.4,1071.9,160.6,1069.2,155.5z"/>
<path class="st7" d="M692.6,140c4-0.7,8-0.3,11.7,1.3c4.5,2,9.6,2,14.1,0c5.3-2.3,11.4-2.2,16.6,0.3c1.5,0.8,3.1,1.2,4.8,1.2
	c6.7,0,12.3-6.8,13.5-15.7c-1.3-1-2.5-2.2-3.4-3.6c-3.9-6.4-10-10.4-16.9-10.4s-12.9,4-16.8,10.3c-2.4,3.9-6.7,6.2-11.2,6.1h-0.2
	C699.5,129.5,694.9,133.8,692.6,140z"/>
<path class="st7" d="M672.1,112l10.9,6.9l-6.6-12c1.9-1.5,4.2-2.3,6.6-2.4h0.2c0.8,0,1.5,0,2.2-0.2l3.7,2.3l-1.6-2.9
	c2.6-0.9,4.9-2.6,6.5-4.9l6.6,4.2l-4.2-7.6c3.9-4.6,9-7.5,14.8-7.5c6.8,0,13,4.1,16.9,10.4c2.4,3.9,6.6,6.1,11.2,6h0.4
	c7.6,0,13.7,8.6,13.7,19.2s-6.1,19.2-13.7,19.2c-1.7,0-3.3-0.4-4.8-1.2c-5.2-2.5-11.3-2.6-16.6-0.3c-2.2,1-4.6,1.5-7.1,1.5
	c-2.4,0-4.8-0.5-7-1.5c-5.3-2.3-11.3-2.2-16.4,0.3c-1.5,0.8-3.1,1.2-4.7,1.2c-7.6,0-13.7-8.6-13.7-19.2
	C669.2,119.6,670.2,115.6,672.1,112z"/>
</svg>
