<?xml version="1.0" encoding="utf-8"?>
<!-- Generator: Adobe Illustrator 19.2.1, SVG Export Plug-In . SVG Version: 6.00 Build 0)  -->
<svg version="1.1" id="_x39_4c1f45f-2d92-458e-bbfe-f6c69da92e14"
	 xmlns="http://www.w3.org/2000/svg" xmlns:xlink="http://www.w3.org/1999/xlink" x="0px" y="0px" viewBox="0 0 1034.9 831.6"
	 style="enable-background:new 0 0 1034.9 831.6;" xml:space="preserve">
<style type="text/css">
	.st0{opacity:0.1;fill:#2196F3;enable-background:new    ;}
	.st1{opacity:0.1;fill:#6C63FF;enable-background:new    ;}
	.st2{fill:none;stroke:#535461;stroke-width:2;stroke-miterlimit:10;}
	.st3{fill:#2196F3;}
	.st4{opacity:0.25;enable-background:new    ;}
	.st5{fill:url(#SVGID_1_);}
	.st6{fill:#65617D;}
	.st7{opacity:0.1;enable-background:new    ;}
	.st8{fill:#FBBEBE;}
	.st9{fill:#E7EFFD;}
	.st10{fill:#3F3D56;}
	.st11{fill:#5F5D7E;}
	.st12{fill:#7C5C5C;}
	.st13{opacity:0.1;}
	.st14{fill:#E6E8EC;}
	.st15{fill:#DCDFED;}
	.st16{fill:#E3E5F1;}
</style>
<title>envelope</title>
<path class="st0" d="M601.3,95.1C535,93.2,471.8,75.3,411.5,55.8S291.3,14.7,226.5,4.3c-41.6-6.6-89.3-7.6-122.8,11
	C71.4,33.2,61,64.1,55.4,92.8c-4.2,21.6-6.7,44.3,4.9,64.4c8,14,22.3,25.8,32.2,39.2c34.3,46.7,10.1,104.3-27.1,149.9
	c-17.4,21.4-37.7,41.8-51.1,64.6S-5.5,459.8,6.2,483c11.7,23,39.5,40.3,69.6,52.5c61.2,24.7,133.3,31.8,203.6,35.8
	c155.6,8.9,312.1,5,468.2,1.2c57.8-1.4,115.8-2.9,172.6-10.3c31.5-4.1,64.1-10.7,87-26.5c29.1-20.1,36.3-54.1,16.8-79.3
	c-32.7-42.2-123-52.7-145.9-98.1c-12.6-25,0.3-52.8,18.6-75.9c39.2-49.6,104.9-93.2,108.4-149.9c2.4-39-29.2-78-78-96.4
	c-51.2-19.3-122.2-16.9-160,15.1C728.2,84.1,659.9,96.8,601.3,95.1z"/>
<ellipse class="st1" cx="435.5" cy="802.3" rx="290.8" ry="29.3"/>
<path class="st2" d="M169.5,799.1c0,0-12.9-73.1-60.8-109.3c-20.1-15.2-34.8-35.9-41.2-59.4c-3-11.2-5-22.6-5.8-34.1"/>
<path class="st3" d="M31.7,573.3c4,7.8,30.7,23.7,30.7,23.7s3.4-29.6-0.7-37.5s-14-11.1-22.3-7.3S27.7,565.5,31.7,573.3z"/>
<path class="st3" d="M29.1,628.1c7.9,4.5,39.4,4.1,39.4,4.1s-14.2-26.6-22.1-31.1s-18.2-2.1-22.9,5.3S21.2,623.6,29.1,628.1z"/>
<path class="st3" d="M68.3,701.8c9.2,0.1,36.2-15.2,36.2-15.2s-26.5-16.2-35.7-16.3s-16.8,6.8-17,15.5S59.1,701.6,68.3,701.8z"/>
<path class="st3" d="M111.3,751.2c9.1,1.6,38.4-9.2,38.4-9.2s-23.2-20.2-32.3-21.8s-17.8,4-19.5,12.6S102.2,749.6,111.3,751.2z"/>
<path class="st3" d="M100.9,619.2c-3.1,8.2-28,26.5-28,26.5s-6.6-29.1-3.4-37.3s12.7-12.4,21.4-9.5S104.1,611.1,100.9,619.2z"/>
<path class="st3" d="M150.4,677.7c-5.6,6.9-35.1,17.4-35.1,17.4s3-29.7,8.6-36.6c5.8-7,16-8.3,23.4-3c6.9,4.8,8.7,14.2,3.9,21.1
	C150.9,677,150.6,677.4,150.4,677.7z"/>
<path class="st3" d="M190.2,740.7c-4.3,7.7-31.5,22.8-31.5,22.8s-2.4-29.7,1.9-37.4s14.4-10.7,22.5-6.7S194.5,733,190.2,740.7z"/>
<path class="st4" d="M31.7,573.3c4,7.8,30.7,23.7,30.7,23.7s3.4-29.6-0.7-37.5s-14-11.1-22.3-7.3S27.7,565.5,31.7,573.3z"/>
<path class="st4" d="M29.1,628.1c7.9,4.5,39.4,4.1,39.4,4.1s-14.2-26.6-22.1-31.1s-18.2-2.1-22.9,5.3S21.2,623.6,29.1,628.1z"/>
<path class="st4" d="M68.3,701.8c9.2,0.1,36.2-15.2,36.2-15.2s-26.5-16.2-35.7-16.3s-16.8,6.8-17,15.5S59.1,701.6,68.3,701.8z"/>
<path class="st4" d="M111.3,751.2c9.1,1.6,38.4-9.2,38.4-9.2s-23.2-20.2-32.3-21.8s-17.8,4-19.5,12.6S102.2,749.6,111.3,751.2z"/>
<path class="st4" d="M100.9,619.2c-3.1,8.2-28,26.5-28,26.5s-6.6-29.1-3.4-37.3s12.7-12.4,21.4-9.5S104.1,611.1,100.9,619.2z"/>
<path class="st4" d="M150.4,677.7c-5.6,6.9-35.1,17.4-35.1,17.4s3-29.7,8.6-36.6c5.8-7,16-8.3,23.4-3c6.9,4.8,8.7,14.2,3.9,21.1
	C150.9,677,150.6,677.4,150.4,677.7z"/>
<path class="st4" d="M190.2,740.7c-4.3,7.7-31.5,22.8-31.5,22.8s-2.4-29.7,1.9-37.4s14.4-10.7,22.5-6.7S194.5,733,190.2,740.7z"/>
<path class="st2" d="M167.9,797.2c0,0,19.6-71.8-8.6-123.2c-11.8-21.6-16.4-46.1-12.2-70.1c2-11.4,5.2-22.6,9.4-33.4"/>
<path class="st3" d="M138.8,538c0.3,8.7,17.9,33.4,17.9,33.4s15.8-25.8,15.5-34.5s-8.1-15.5-17.3-15.2S138.5,529.3,138.8,538z"/>
<path class="st3" d="M113,587.1c5.3,7.1,34.3,18.8,34.3,18.8s-1.6-29.7-6.9-36.9c-5.5-7.2-15.7-8.9-23.3-3.9
	c-7.1,4.5-9.3,13.9-4.8,21C112.5,586.5,112.7,586.8,113,587.1z"/>
<path class="st3" d="M117.2,669.5c8.4,3.7,39.7-0.1,39.7-0.1s-17.3-24.9-25.7-28.6s-18.3-0.2-22.2,7.7S108.8,665.9,117.2,669.5z"/>
<path class="st3" d="M135.2,731.2c7.6,4.9,39.1,6.2,39.1,6.2s-12.6-27.3-20.2-32.2c-7.6-4.9-17.7-3.2-23.2,4
	c-5,6.8-3.5,16.3,3.3,21.3C134.5,730.7,134.9,730.9,135.2,731.2z"/>
<path class="st3" d="M182.4,606.5c-6.4,6.3-37,13.6-37,13.6s6.5-29.2,12.9-35.4c6.6-6.3,16.8-6.5,23.6-0.4
	c6.3,5.5,6.9,15.1,1.4,21.4C183,605.9,182.7,606.2,182.4,606.5z"/>
<path class="st3" d="M202.5,678.9c-8.1,4.2-39.6,2.5-39.6,2.5s15.4-26,23.5-30.2s18.2-1.4,22.7,6.2S210.6,674.7,202.5,678.9z"/>
<path class="st3" d="M211.9,751.7c-7.2,5.4-38.6,8.8-38.6,8.8s10.6-28.1,17.8-33.5c7.3-5.4,17.5-4.3,23.5,2.5
	c5.4,6.4,4.7,16-1.7,21.4C212.5,751.3,212.2,751.5,211.9,751.7z"/>
<linearGradient id="SVGID_1_" gradientUnits="userSpaceOnUse" x1="924.4476" y1="-4.647" x2="924.4476" y2="614.9482" gradientTransform="matrix(1 0 0 -1 -82.53 797.8)">
	<stop  offset="0" style="stop-color:#808080;stop-opacity:0.25"/>
	<stop  offset="0.54" style="stop-color:#808080;stop-opacity:0.12"/>
	<stop  offset="1" style="stop-color:#808080;stop-opacity:0.1"/>
</linearGradient>
<path class="st5" d="M992.2,378.2c0.6-1.6-3.9-10.7-3.9-11.2s-4.7-5.5-4.7-8.4s-6.2-8.9-6.2-8.9s-8.2-3.4-9.2-10.9s-9.9-7.6-9.9-7.6
	l0,0c0,0,0-0.7,0.1-1.7c0-2.3-0.1-6.5-1.1-8.7c-1.1-2.1-2.9-3.6-5.1-4.3c0,0-0.9-5.8-2.7-7.6c-2-2.1-2.8-5.2-2.1-8
	c0.9-2.8-1.2-10-5.6-11s-9.3-2.7-9.3-2.7s-0.5,0.1-1.2,0.2l-0.6-0.2c-1,0.2-2.1,0.3-3.2,0.4c-0.9,0-1.8-0.3-2.5-0.8
	c-1.5-1.6-13.7-4.8-15.9-4.8s-8.7-3-8.7-3L894,274c-1.8-1.4-5.2-7-5.7-7.8l-0.1-0.1l0,0l0,0c-0.6-1.3-1-2.6-1.4-3.9l0,0
	c2.2-2.3,4.1-4.9,5.6-7.7c0.2-0.3,0.3-0.6,0.4-0.9c0.3,0,0.7-0.1,1-0.2c0.1,0,0.3-0.1,0.4-0.1c1.5-0.8,2.7-2.2,3.2-3.8l0,0
	c0.1-0.3,0.2-0.6,0.3-1c0-0.1,0-0.2,0.1-0.3c0.1-0.1,0.1-0.5,0.1-0.7s0-0.3,0.1-0.4s0.1-0.5,0.1-0.7c0-0.2,0-0.2,0-0.4
	c0-0.3,0.1-0.6,0.1-0.9l0,0c0.1-1.1,0.3-2.1,0.5-3.1l0,0l0,0c0.9-4,3.3-7.5,5.1-11.2l0,0c0.2-0.5,0.5-1.1,0.7-1.6
	c0.2-0.6,0.4-1.2,0.6-1.8l0.2-0.6c0.1-0.4,0.2-0.9,0.3-1.3c0-0.2,0.1-0.4,0.1-0.6c0.1-0.6,0.2-1.2,0.2-1.9c0.3-3.6-0.2-7.2-1.5-10.5
	c-1.1-2.8-2.8-5.3-3.9-8.1c-1.7-4.2-2.2-9-4.3-13.1c-3.5-6.8-11.8-10.2-18.7-7.6c-3.3,1.2-6.1,3.6-9.4,4.6
	c-4.4,1.4-9.2,0.4-13.8-0.3c-4.6-0.6-9.7-0.7-13.4,2.3c-4.2,3.4-5.4,9.9-9.4,13.7c-1.7,1.6-3.8,2.6-5.5,4.1c-1.2,1-2.2,2.3-2.8,3.8
	c0,0.1-0.1,0.2-0.1,0.3c0,0.1-0.1,0.2-0.1,0.4c0,0.1-0.1,0.3-0.1,0.4s0,0.2,0,0.3c0,0.3,0,0.5,0,0.8l0,0c0,0.3,0.1,0.5,0.1,0.8
	c0,0.1,0,0.1,0,0.2s0.1,0.4,0.2,0.6c0,0,0,0.1,0,0.1c0.1,0.2,0.2,0.4,0.3,0.7l0.2,0.3l0.1,0.3c0.6,1.1,1.1,2.3,1.4,3.5
	c0.2,0.8,0.1,1.6-0.1,2.3c-0.4,0.8-1,1.6-1.7,2.2c-3,3.1-5.3,6.8-6.8,10.9c-0.2,0.5-0.3,0.9-0.5,1.4l0,0l0.2,0
	c0.4,0.1,0.9,0.2,1.3,0.3c0.2,0,0.5,0.1,0.8,0.1c1,0.1,2.1,0,3.1-0.2c0.2,0,0.5-0.1,0.8-0.2c1-0.3,2-0.7,3-1.1c0,0.3,0,0.6,0,0.9
	s0,0.3,0,0.5c0,13.4,7.6,25.7,19.7,31.7c0,0.3,0.1,0.6,0.1,1c0,0.4,0.1,0.5,0.1,0.8l-0.4-0.4c0,0-2.7-1.3-5.3,2.5
	c-2.5,3.9-7.3,5.7-7.3,5.7s-27.3,4.3-28.4,7.9l-12.8,0.7c0,0-4.5,0.6-5,10s-2.8,10.3-2.8,10.3s-5.2,9.2-4.8,14c0.4,4.8-4,7.2-4,7.2
	l-0.6,8.5c0,0-5-0.7-6.3,5.1c-1.3,5.8-3.8,8.5-3.8,8.5s-8.3,6.9-8.7,12.7L750,367c0,0-11.9-2.7-14.6-7.5l-0.8-0.8
	c0,0-0.1-0.1-0.1-0.1c0,0,0,0,0,0.1c-1.8-1.7-5.5-5.2-5-4.4c0.4,0.7,0.4,1.6,0.2,2.4l-0.9-1l-2.4-2.6c0,0-19.2-18-30.4-19.4l0,0
	c-0.2-0.3-0.9-3.1-2.8-1.4c-6.4,5.8-6.8,15.7-1,22.1c0.3,0.3,0.6,0.6,0.9,0.9l18,16.8l0.5,0.3l3.9,5c-0.7,1.6-1.2,3.1-1.7,4.5
	c0,0,0,0.1,0,0.1c-0.1,0.3-0.2,0.6-0.3,0.9l-0.1,0.3c-0.1,0.3-0.2,0.6-0.2,0.8c-0.1,0.3-0.1,0.3-0.1,0.5c0,0.2,0,0.2-0.1,0.3
	c-0.4,1.5-0.7,2.6-0.8,3.3l-1-0.3l1,0.4c0,0,0,0.1,0,0.2l-0.1,0.3l0.9,0.4c5.3,2.3,31.5,13.8,32.9,15.5c1.5,1.9,11.4,7.6,20.4,2.8
	c9-4.8,11-12.1,11-12.1s8.7-12.1,9-13.9c0.3-1.8,7.1-3.9,7.1-3.9s0.6,20-2.8,27.3s-9.9,39.7-9.9,39.7c0.4-0.1,0.9-0.1,1.3-0.1
	c-0.2,1.2-0.4,1.9-0.4,1.9c0.5-0.1,1.1-0.1,1.6,0c-0.5,3.7-3.2,20.8-3.2,20.8s-0.9,7.8-2.4,10.4s-1.7,16.7-1.7,16.7l-2.4,10.1
	c0.3,0.6,0.6,1.2,0.9,1.8l0,0c0,0,2.6,5.7,6.9,8.9c-0.2,1.6-0.6,3.2-1.2,4.6c-0.9,2.3-1.3,4.7-1.2,7.2c0,0-2.5,11.5-2.2,14.8
	c0.3,3.3-1.7,11.3-1.7,11.3l-2.8,25.9c0,0-1.8,22.5-0.9,28.6c0.9,6.1-0.6,14.5-0.6,14.5s1.8,17.7,1.3,19.7
	c-0.5,1.9-2.7,10.3-1.3,14.9c1.3,4.6,0.6,17.3,0.6,17.3s0.9,16.7,1.9,22.1c1,5.4-0.3,12.2-0.3,12.2s-1,11.5-1.5,11.5
	s-4.3,7.9,3.6,15.7s3,6.5,3,6.5s-6.3-3.1-5.6,3.3c0.7,6.1,1.7,4.5,1.8,4.3l-1.5,4.9l1,0.2l-0.9,1c-0.9,1.1-1.9,2.2-3,3.1
	c-1.8,1.3-2,4.3-2,4.3s-11.1,12.1-21.5,18.2c-5.4,3.2-10.2,5.9-12.2,8.2c-1.8,2-1.6,3.7,2.3,4.9c8.1,2.7,22.4,4,32.6,0.6
	c6.1-2,11.6-5.6,15.9-10.3c0,0,6.5-3.3,12.8-2.1c6.3,1.2,18.9-7,18.9-7l-0.2-2.1l-0.7-6.1c-0.9-1-1.2-2.4-1-3.7
	c0.1-1.8-0.1-3.6-0.5-5.4c-0.1-0.6-0.2-1.2-0.3-1.7l1.2-0.2c0,0-1.5-7.6,1.2-9.1c2.7-1.5,1.9-21,1.9-21s-3.4-4.5-5.2-5.2
	c-1.8-0.7-0.2-10,0.2-11.2c0.3-1.2,2.7-24.3,2.7-24.3s-0.9-7.3,0.3-10.4c1.2-3.1-1.4-15.1-1.4-15.1s-0.9-1.5,0.8-3.3s1-17.7,1-17.7
	s-0.1-8-0.1-10.1s1.8-9.7,3.5-12.2s0.6-10.4,0.6-10.4l0,0l0.1-0.6c0-0.2,0.1-0.5,0.1-0.8l0.1-0.8c0.7-4.4,1.7-8.7,3-13
	c2-6.3,4.2-17.3,4.2-17.3l14-36.4l0.2-0.4c0,0,6.5,11.9,6.5,23c0,0,1.7,13.3,1.2,16.8c-0.4,3.6,1.3,20.3,1.3,20.3s1.9,24.2,1.9,25.2
	s2.4,19.7,3.9,22.5c1.5,2.8-1.5,11.5-2.4,12.4c-0.9,0.9,0.3,22.8,0.3,22.8s-2.2,17.3-2.7,20.9c-0.4,3.6-2.2,17.3-0.8,22.7
	s0.9,6.1,0.9,6.1s5.4,5.5,2.2,6c-4.5,1-7.3,5.4-6.3,9.8c0.1,0.4,0.2,0.7,0.3,1.1c1.9,5.5,4.1,10.8,6.6,16c0,0,0.9-0.2,2.5-0.5v1.8
	l0.2,8.9c0,0,1,8.5,0.4,10.4c-0.4,1.4-1,8.1-1.3,11.6c-0.1,1.3-0.2,2.1-0.2,2.1s0,7.9,16.7,5.5c16.7-2.4,19.7-8.9,19.7-8.9
	s0-0.3,0.1-0.8c0.2-1.5,0.8-4.7,1.2-6.5c0.6-2.4-4.8-13.1-4.8-13.1s-0.9-7.3-2.4-8.9c-0.6-0.9-1-2-1.2-3.1c-0.1-0.6-0.3-1.2-0.4-1.8
	c0.4,0,0.7,0.1,1.1,0.2c0,0-0.9-5.2,2.6-6.9c3.5-1.6,2.6-5.1,2.1-6.6c-0.4-1.5,1.3-9.8,1.3-9.8c-0.5-1.7,0-3.5,1.2-4.8
	c2.1-2.1,3.8-16.7,3.8-16.7l0.3-56.3c0,0,1.1-10-0.1-14c-1.2-4-2.4-11.8-0.8-13.9c1.7-2.1,0.2-11.8,0.2-11.8s0-20.4,2.3-25.5
	s1.5-37.1,1.5-37.1l0.6-21c0,0,4.9-4.6,3.8-28.8c5.2-0.3,11.1-0.5,12,0.2c1.7,1.3,12.3,8.2,18.6,3.9c1.3-0.6,7.5-5.8,7.5-5.8
	l-2.6-44.7c1.7,2.5,2.7,4.1,2.7,4.1c0-6.3,17.7-26.5,17.7-26.5s16.5-21.3,20.1-23.9s10.7-16,10.7-16c1-2.6,2.2-5,3.6-7.5
	C997,387,991.6,379.8,992.2,378.2z M953.5,393.8c-4.5,0.5-14,10.7-14.1,13c-0.1,1.2-1.1,2.8-2,4c-0.1-0.9-0.2-1.8-0.2-2.8
	c-1.1-13.2-2.2-29.2-1.7-30.8c0.9-2.7,0.6-14.8,0.6-14.8l0,0l0.2-0.2c3,9.4,12.4,20.4,12.4,20.4s1.7,4.8,3.6,4.9
	S953.5,393.8,953.5,393.8z"/>
<path class="st6" d="M712.8,390.4c0,0,5.5-28.7,23.1-28.9l12.9,26.5l-8.6,5.9C740.2,394,721.5,394.5,712.8,390.4z"/>
<path class="st7" d="M748.8,388l-8.6,5.9c0,0-13.1,0.4-22.5-1.9c-1.7-0.4-3.3-1-4.9-1.7c0,0,0-0.2,0.1-0.5c0,0,0-0.1,0-0.1
	c0.8-3.6,1.9-7.1,3.3-10.5c0.5-1.3,1.2-2.6,1.8-4c2.6-5,6.2-9.8,11.2-12.2c1.8-0.9,3.8-1.4,5.9-1.5h0.5h0.3l0.3,0.6l4.3,8.9
	L748.8,388z"/>
<path class="st6" d="M894.9,507.3c0,0,18.5-1.8,20.1-0.4s12.1,8.1,18.3,3.8s2.1-19.2,2.1-19.8s-0.6-21.8-0.6-21.8l-11.1-14.9
	L909.9,428l-28.4-2.8l0.7,41.6l-0.2,21.3L894.9,507.3z"/>
<path class="st7" d="M894.9,507.3c0,0,18.5-1.8,20.1-0.4s12.1,8.1,18.3,3.8s2.1-19.2,2.1-19.8s-0.6-21.8-0.6-21.8l-11.1-14.9
	L909.9,428l-28.4-2.8l0.7,41.6l-0.2,21.3L894.9,507.3z"/>
<path class="st8" d="M732.2,360.8c0,0-1.5,18-12.7,18.3c0,0-3.2-1.9-7.5-5.1c-9.9-7.4-25.5-21.6-21.2-34.8c6.2-18.9,36.4,16,36.4,16
	l2.3,2.6L732.2,360.8z"/>
<path class="st7" d="M732.2,360.8c0,0-1.5,18-12.7,18.3c0,0-3.2-1.9-7.5-5.1l-0.9-1.2c1.9,1,4,1.6,6.2,1.7c3.5,0.1,6.6-1.9,8-5.1
	c1.2-2.3,2.2-4.7,3.1-7.2c0.5-1.4,0.9-2.9,1.2-4.4L732.2,360.8z"/>
<path class="st9" d="M727.3,393.5l-2.5-3.3l-8.5-11l-4.3-5.6c1.9,1,4,1.6,6.2,1.7c2.8,0.1,6-1,8-5.1c1.2-2.3,2.2-4.7,3.1-7.2
	c1.4-4,1.4-6,0.9-6.7s3.1,2.7,4.9,4.3l0.1,0.1l0.8,0.8l0.3,0.6l4.3,8.6c0,0,0,0.1,0,0.4C740.8,373.8,742.3,391.1,727.3,393.5z"/>
<path class="st6" d="M815.9,774.3c0,0-12.4,8.1-18.6,7c-6.2-1.1-12.6,2.1-12.6,2.1c-4.3,4.7-9.7,8.2-15.7,10.2
	c-10,3.4-24.1,2.1-32.1-0.6c-3.8-1.3-4.1-2.9-2.3-4.9c2-2.2,6.7-4.9,12-8.1c10.2-6.1,21.2-18,21.2-18s0.2-3,1.9-4.3
	c1.1-0.9,2.1-2,3-3.1c1.6-1.9,3.1-3.8,3.1-3.8l36.6,1.1c0,0,0.6,2.6,1.1,5.3c0.4,1.7,0.6,3.5,0.5,5.3c-0.2,1.3,0.2,2.7,1,3.7l0.7,6
	L815.9,774.3z"/>
<path class="st6" d="M892.4,784.5c-0.4,1.8-1,4.9-1.2,6.4l-0.1,0.8c0,0-3,6.5-19.4,8.9s-16.4-5.5-16.4-5.5s0.1-0.8,0.2-2.1
	c0.3-3.5,0.9-10.1,1.3-11.5c0.6-1.9-0.5-10.4-0.5-10.4l-0.2-8.8l-0.1-6.1l27.2-2.8c0.2,2,0.5,4.1,0.9,6.1c0.2,1.1,0.6,2.2,1.2,3.1
	c1.5,1.6,2.4,8.9,2.4,8.9S893,782.1,892.4,784.5z"/>
<path class="st7" d="M812.4,751.8c0,0,0.6,2.6,1.1,5.3c-4,0.7-21.2,3.7-25.5,1.6c-4.9-2.4-15.4-3.7-15.4-3.7l0.2-0.6
	c1.6-1.9,3.1-3.8,3.1-3.8L812.4,751.8z"/>
<path class="st7" d="M884.1,759.5c-6.9-1.2-22,1.7-28,2.9l-0.1-6.1l27.2-2.8C883.4,755.5,883.7,757.5,884.1,759.5z"/>
<path class="st10" d="M899.5,535.2l-0.6,20.9c0,0,0.7,31.8-1.5,36.8s-2.2,25.3-2.2,25.3s1.5,9.6-0.2,11.7s-0.4,9.8,0.7,13.8
	c1.2,4,0.2,13.9,0.2,13.9l-0.3,55.9c0,0-1.6,14.5-3.7,16.6c-1.2,1.3-1.7,3.1-1.2,4.7c0,0-1.8,8.3-1.3,9.8c0.4,1.5,1.3,4.9-2.1,6.5
	s-2.5,6.8-2.5,6.8c-8.1-1.9-31.2,3.3-31.2,3.3c-2.5-5.1-4.7-10.4-6.5-15.8c-1.5-4.3,0.7-8.9,4.9-10.5c0.3-0.1,0.7-0.2,1-0.3
	c3.1-0.5-2.2-5.9-2.2-5.9s0.6-0.7-0.9-6.1c-1.5-5.3,0.3-19,0.7-22.5c0.5-3.5,2.7-20.7,2.7-20.7s-1.2-21.7-0.3-22.6s3.8-9.5,2.4-12.3
	c-1.5-2.8-3.9-21.3-3.9-22.3s-1.9-25-1.9-25s-1.8-16.7-1.3-20.3c0.5-3.6-1.2-16.7-1.2-16.7c0-11-6.4-22.8-6.4-22.8l-0.2,0.4
	l-13.7,36.1c0,0-2.2,10.9-4.1,17.2c-1.2,4.2-2.2,8.5-2.9,12.8l-0.1,0.8c0,0.3-0.1,0.6-0.1,0.8l-0.1,0.6l0,0c0,0,1,7.8-0.6,10.4
	s-3.4,10.1-3.4,12.1s0.2,10.1,0.2,10.1s0.6,15.8-1,17.6c-1.6,1.8-0.8,3.2-0.8,3.2s2.7,12,1.5,15.1c-1.2,3.1-0.3,10.3-0.3,10.3
	s-2.4,22.9-2.7,24.1c-0.3,1.2-1.9,10.4-0.2,11.1c1.8,0.7,5.2,5.2,5.2,5.2s0.8,19.4-1.9,20.9c-2.7,1.5-1.2,9-1.2,9
	s-21.4,4.1-26.3,1.8s-15.4-3.7-15.4-3.7l1.5-4.9c-0.1,0.2-1.1,1.8-1.8-4.3c-0.7-6.4,5.5-3.3,5.5-3.3s4.9,1.2-3-6.5s-4-15.5-3.6-15.5
	c0.5,0,1.5-11.4,1.5-11.4s1.3-6.8,0.3-12.1s-1.9-21.9-1.9-21.9s0.7-12.6-0.6-17.2c-1.3-4.6,0.9-12.9,1.3-14.8
	c0.5-1.9-1.4-19.5-1.4-19.5s1.5-8.3,0.6-14.3c-0.9-6.1,0.9-28.4,0.9-28.4l2.7-25.7c0,0,1.9-8,1.6-11.2c-0.3-3.2,2.2-14.6,2.2-14.6
	c-0.2-2.4,0.3-4.9,1.2-7.1c1.5-3,2.1-12.7,2.1-12.7l14.2-32.5l7-28.7l93.9-0.9c0,0,0.3,2.5,0.9,7c0.6,4.5,1.4,11.2,2.3,19.5
	c0.8,7.5,1.7,16.3,2.6,26.2C905.5,529.6,899.5,535.2,899.5,535.2z"/>
<path class="st8" d="M890.8,276.2l-21.9,23.4c0,0-28.1-11.2-25.1-15.1c1.1-1.5,1-6.2,0.3-11.4c-1-8.2-3.3-17.6-3.3-17.6
	s49.1-8,45,0.3c-1.5,3-1.2,6.6-0.3,9.8C886.7,269.4,888.5,273,890.8,276.2z"/>
<path class="st7" d="M885.8,255.8c-1.5,3-2.2,3.3-1.3,6.6c-6.4,6.9-14.6,14.4-24.8,14.4c-5.4,0-10.8-1.2-15.7-3.7
	c-1-8.2-3.3-17.6-3.3-17.6S889.9,247.5,885.8,255.8z"/>
<path class="st8" d="M894.9,240.7c-0.3,19.4-16.4,34.9-35.8,34.6c-19-0.3-34.3-15.6-34.6-34.6c0-0.2,0-0.3,0-0.5
	c0.1-19.4,16-35.1,35.5-35C879.4,205.4,895.1,221.2,894.9,240.7L894.9,240.7L894.9,240.7z"/>
<path class="st7" d="M900,473c-4.7,0-20.2,0.2-37.6,0.4h-0.2l-5.7,0.1h-0.2c-20.6,0.3-40.9-3.7-49-2.9c-17.3,1.6,6.2-16,6.2-16
	c12.9,3.1,26.2,4.5,39.4,4l5-0.3c15.7-0.9,31.5-2.4,39.8-4.9C898.3,458.1,899.1,464.7,900,473z"/>
<path class="st11" d="M900,472.1c-4.7,0-20.2,0.2-37.6,0.4h-0.2l-5.7,0.1h-0.2c-20.6,0.3-40.9-3.7-49-2.9c-17.3,1.6,6.2-16,6.2-16
	c12.9,3.1,26.2,4.5,39.4,4l5-0.3c15.7-0.9,31.5-2.4,39.8-4.8C898.3,457.2,899.1,463.8,900,472.1z"/>
<path class="st7" d="M850.2,286L823,298.7l-21,162.4c0,0,12.4-5.6,19.5-2.1c7.1,3.5,29,0.3,29,0.3s16-0.9,18.3,0.9
	s30.2-7.4,30.2-7.4s5-11.2,1.2-13c-3.8-1.8,1.2-19.2,1.2-19.2l-2.4-117.2l-4.7-15.1l-12.7-7.7l-13,10.4l-6.2,0.9L850.2,286z"/>
<path class="st9" d="M850.2,284.2L823,296.9l-21,162.4c0,0,12.4-5.6,19.5-2.1c7.1,3.5,29,0.3,29,0.3s16-0.9,18.3,0.9
	s30.2-7.4,30.2-7.4s5-11.2,1.2-13c-3.8-1.8,1.2-19.3,1.2-19.3l-2.4-117.2l-4.7-15.1l-12.7-7.7l-13,10.4l-6.2,0.9L850.2,284.2z"/>
<path class="st7" d="M849.8,291.7c0,0,7.8,9.3,7.7,11.2s-0.4,6.5-0.4,6.5l-5.9,12c0,0-3.2,14.9-3.2,18s-5.2,30-5.2,30l-6.2,41.4
	l-7.8,54.3l8,13.7l9.5-8l12.6-96.8l2.7-19.1c0,0,2.8-34.3,2.8-37.9s-1.6-12.9-1.6-12.9s1.9-8.9,9.9-11s-0.6-0.5-0.6-0.5l-4.6-3.7
	l-4,1.6C863.2,290.9,852.2,287.6,849.8,291.7z"/>
<path class="st3" d="M848.9,290.8c0,0,7.8,9.3,7.7,11.2c-0.1,1.9-0.4,6.5-0.4,6.5l-5.9,12c0,0-3.3,14.9-3.3,18s-5.2,30-5.2,30
	l-6.2,41.4l-7.8,54.3l8,13.8l9.5-8l12.6-96.8l2.7-19.1c0,0,2.8-34.3,2.8-37.9s-1.6-12.9-1.6-12.9s1.9-8.9,9.9-11s-0.6-0.4-0.6-0.4
	l-4.6-3.7l-4,1.6C862.4,290.1,851.3,286.7,848.9,290.8z"/>
<path class="st7" d="M843.7,275.3c0,0-1.2,0.9-1.5,6.8c-0.3,5.9-4.4,19.2-4.4,19.2s15.4-10.6,23.1-9.5L843.7,275.3z"/>
<path class="st9" d="M843.7,273.5c0,0-1.2,0.9-1.5,6.8c-0.3,5.9-4.4,19.2-4.4,19.2s15.4-10.6,23.1-9.5L843.7,273.5z"/>
<path class="st7" d="M885.8,270.6l-24.3,21.3c0,0,20.4,12.1,23.1,15.1s5.3-29,5.3-29L885.8,270.6z"/>
<path class="st9" d="M886.6,268.8l-24.3,21.3c0,0,20.4,12.1,23.1,15.1c2.7,3,5.3-29,5.3-29L886.6,268.8z"/>
<path class="st7" d="M844.6,275.3c0,0-2.7-1.3-5.2,2.5c-1.8,2.5-4.4,4.5-7.2,5.6c0,0-26.9,4.3-28,7.8l-12.6,0.7c0,0-4.4,0.6-4.9,9.9
	c-0.4,9.3-2.8,10.2-2.8,10.2s-5.2,9.2-4.7,13.9c0.4,4.7-4,7.1-4,7.1l18.5,48.1c0,0,0.6,19.8-2.8,27.1c-3.4,7.2-9.8,39.4-9.8,39.4
	s2.7-0.6,2.5,1.2c-0.1,1.8-3.2,21.2-3.2,21.2s-0.9,7.7-2.4,10.4s-1.6,16.6-1.6,16.6l-2.4,10.1c0,0,5.6,12.6,14.2,10.8
	c8.6-1.8,24.1-35.3,24.1-35.3l9.9-36.2l7.7-35.8l2.2-24.3l3.5-53.7l5.2-35.5C841,296.9,846.7,277.8,844.6,275.3z"/>
<path class="st6" d="M843.7,273.5c0,0-2.7-1.3-5.2,2.5c-1.8,2.5-4.4,4.5-7.2,5.6c0,0-26.9,4.3-28,7.8l-12.6,0.7c0,0-4.4,0.6-4.9,9.9
	c-0.4,9.3-2.8,10.2-2.8,10.2s-5.2,9.2-4.7,13.9c0.4,4.7-4,7.1-4,7.1l18.5,48.1c0,0,0.6,19.8-2.8,27.1s-9.8,39.4-9.8,39.4
	s2.7-0.6,2.5,1.2c-0.1,1.8-3.3,21.1-3.3,21.1s-0.9,7.7-2.4,10.4c-1.5,2.7-1.6,16.6-1.6,16.6l-2.4,10.1c0,0,5.6,12.6,14.2,10.8
	c8.6-1.8,24.1-35.4,24.1-35.4l9.9-36.2l7.7-35.8l2.2-24.3l3.6-53.7l5.2-35.5C840,295.1,845.8,276,843.7,273.5z"/>
<path class="st7" d="M748.8,388l-8.6,5.9c0,0-13.1,0.4-22.5-1.9l-4.8-2.1l-1-0.4l1,0.3c5,1.5,8.8,1.4,11.8,0.4
	c12.1-4.1,10.8-24.1,10.3-28.7c0-0.5-0.1-0.8-0.1-0.9c0,0,0,0,0-0.1l0.1,0.1c0.2,0.3,0.4,0.5,0.6,0.8c0.2,0.2,0.3,0.4,0.5,0.6l0,0
	l4.3,8.6c0,0,0,0.1,0,0.4L748.8,388z"/>
<path class="st6" d="M778.5,330.2l-4.2,1.2l-0.6,8.4c0,0-4.9-0.7-6.2,5c-1.3,5.7-3.7,8.4-3.7,8.4s-8.1,6.8-8.6,12.6l-5,3.1
	c0,0-11.7-2.7-14.3-7.4c0,0,5.3,38.2-23.1,28.9c0,0,31.8,13.9,33.3,15.8s11.2,7.5,20.1,2.8s10.8-12,10.8-12s8.6-12,8.9-13.8
	c0.3-1.8,7-3.9,7-3.9l12.7-30.8L778.5,330.2z"/>
<path class="st7" d="M882.3,288.3l4.3-19.5c0,0,1.9,6.4,3.8,7.8l6.4,4.9c0,0,6.4,3,8.6,3c2.2,0,14.2,3.1,15.7,4.7s7.4,0.4,7.4,0.4
	s4.9,1.6,9.2,2.7c4.3,1,6.4,8.1,5.5,11c-0.7,2.8,0,5.9,2.1,8c1.8,1.8,2.7,7.5,2.7,7.5c2.2,0.7,4,2.3,5,4.3c1.5,3.2,1,10.4,1,10.4
	l-22,31.1c0,0,0.3,12-0.6,14.6s3.1,47.9,3.1,47.9L939,505c0,0-6.1,5.2-7.4,5.8c-1.3,0.6-2.7-27.5-2.7-28.5S894.8,431,894.8,431
	s-4.6-7.4-4.6-9s-4.3-16.6-4.3-16.6l-6.5-28.9L882.3,288.3z"/>
<path class="st6" d="M955.8,331.8c0,1,0,1.7,0,1.7l-22,31l0,0c0,0,0.3,12-0.6,14.6c-0.5,1.5,0.6,17.5,1.7,30.5
	c0.7,9.4,1.4,17.4,1.4,17.4l1.9,33l2.6,44.8c0,0-6.1,5.2-7.4,5.8c-1.3,0.6-2.7-27.5-2.7-28.5s-34.2-51.2-34.2-51.2s-4.6-7.4-4.6-9
	s-4.3-16.6-4.3-16.6l-6.5-28.9l3-88.2l2.4-19.5c0,0,3.7,6.4,5.6,7.8l6.4,4.9c0,0,6.4,3,8.6,3c2.2,0,14.2,3.1,15.7,4.7
	s7.4,0.4,7.4,0.4s4.9,1.6,9.2,2.7c4.3,1,6.4,8.1,5.5,11c-0.7,2.8,0,5.9,2.1,8c1.8,1.8,2.7,7.5,2.7,7.5c2.2,0.7,4,2.3,5,4.3
	C955.7,325.3,955.8,329.4,955.8,331.8z"/>
<path class="st7" d="M774.9,725.9c0.7,0,31.8,1.2,31.2,6.2S774.9,725.9,774.9,725.9z"/>
<path class="st7" d="M781.9,734.4c0,0,20.9,3.4,15.4,6.5S781.9,734.4,781.9,734.4z"/>
<path class="st7" d="M859.5,722.7c0,0,34.6,3,29.4,6.8c-5.2,3.8-17.5,4.4-18,4.6C870.4,734.2,859.5,722.7,859.5,722.7z"/>
<path class="st7" d="M855.3,737.9c0,0,19.2,3.2,19.8,7C875.7,748.7,855.3,737.9,855.3,737.9z"/>
<path class="st7" d="M865.9,648.9c0,0,17.6,4.1,18.6,7L865.9,648.9z"/>
<path class="st7" d="M798,661.6c0,0-9.2,2.7-0.3,8S798,661.6,798,661.6z"/>
<path class="st7" d="M838.7,519.4c1,0,17.2-5.3,22.8-3c4,1.5,8.3,2.3,12.6,2.4L838.7,519.4z"/>
<path class="st7" d="M840.8,536.3l-0.2,1.5l-13.8,36.1c0,0-2.2,10.9-4.1,17.2c-1.2,4.2-2.2,8.5-2.9,12.8l12.2-75.7L840.8,536.3z"/>
<path class="st10" d="M862.3,472.5l-5.7,0.1h-0.2l-3.4-14.9l5-0.3L862.3,472.5z"/>
<path class="st8" d="M932.1,454.5l-3.7,3l-12.3,10.1c0,0-33.3,17.8-42.5,0.9c-8.1-14.9,29.7-25.5,38.8-27.8c1.2-0.3,1.9-0.5,1.9-0.5
	L932.1,454.5z"/>
<path class="st7" d="M789.9,309c0,0,6.5,3,8,7.1S789.9,309,789.9,309z"/>
<path class="st7" d="M769.8,353.4c0,0-9.5,11.5-5.6,16S769.8,353.4,769.8,353.4z"/>
<path class="st7" d="M939,315.5c0,0-8.9,0.9-9.2,8.6L939,315.5z"/>
<path class="st7" d="M856.8,436.9c0.9-0.9,21.3-31.1,26-28.4L856.8,436.9z"/>
<path class="st7" d="M894.9,240.7c0,5.8-1.4,11.5-4.2,16.6l-0.3,0c-2.2-0.5-3.4-3.1-5.1-4.7c-2.2-2-5.4-2.5-8-1.1
	c-2.6,1.6-4.2,4.5-3.9,7.6c-1.1-4.7-0.8-9.8-1.9-14.5s-4.4-9.5-9-9.6c-2,0-4.2,0.7-5.7-0.8c-0.8-0.9-1-2.3-1.7-3.4
	c-3.2-5.2-13.1-2.6-17.1,0.1s-8.7,7-13.7,9.3c0.1-19.4,16-35.1,35.5-35C879.4,205.4,895.1,221.2,894.9,240.7L894.9,240.7
	L894.9,240.7z"/>
<path class="st12" d="M855.4,229.9c0.6,1.1,0.8,2.5,1.7,3.3c1.4,1.5,3.7,0.7,5.7,0.8c4.5,0.1,7.8,4.9,8.9,9.6
	c1.1,4.8,0.7,9.8,1.9,14.5c-0.2-3.1,1.3-6,3.9-7.6c2.6-1.4,5.8-0.9,8,1.1c1.7,1.6,2.9,4.2,5.1,4.7c2.2,0.5,4.4-1.7,5.2-4
	c0.8-2.3,0.8-4.9,1.3-7.4c1-4.6,4-8.4,5.7-12.8c2-5.3,1.9-11.2-0.2-16.5c-1.1-2.8-2.8-5.3-3.9-8.1c-1.7-4.2-2.1-9-4.2-13
	c-3.5-6.7-11.7-10.1-18.4-7.6c-3.2,1.2-6,3.5-9.3,4.6c-4.4,1.4-9,0.4-13.6-0.3s-9.5-0.7-13.2,2.3c-4.2,3.4-5.3,9.9-9.3,13.6
	c-1.7,1.6-3.7,2.6-5.4,4s-3.2,3.6-3,6c0.3,3.1,3.3,5.8,2.2,8.7c-0.4,0.8-1,1.6-1.6,2.2c-3.3,3.5-5.7,7.6-7.2,12.2
	c7.9,2.5,16.5-6.2,22.7-10.4C842.3,227.3,852.1,224.7,855.4,229.9z"/>
<path class="st7" d="M932.1,454.5l-3.7,3c-3.2-5.4-16.6-16.2-16.6-16.2l0.6-0.6c1.2-0.3,1.9-0.5,1.9-0.5L932.1,454.5z"/>
<path class="st9" d="M935.6,449c0,0-1.3,3.3-2.7,6.1s-2.9,5.4-2.9,3.3c-0.2-4.1-17.3-18-17.3-18l2.3-2.3l2.7-2.6L935.6,449z"/>
<path class="st7" d="M936.2,427.1l2,33c-4.6-7.1-17.2-25.5-25.3-24.9l19.7-22.6c0.8-0.9,1.6-1.9,2.3-2.9
	C935.5,419.1,936.2,427.1,936.2,427.1z"/>
<path class="st7" d="M935.6,449c0,0-1.3,3.3-2.7,6.1c-5.2-7.1-12.2-15.4-17.9-17l2.7-2.6L935.6,449z"/>
<path class="st6" d="M950.4,329.3l5.3,4.1c0,0,8.9,0.1,9.8,7.5s9,10.8,9,10.8s6.1,6.1,6.1,8.9s4.6,7.8,4.6,8.3s4.4,9.5,3.8,11.1
	s4.7,8.7,3.1,11.4c-1.3,2.4-2.5,4.9-3.6,7.4c0,0-6.9,13.3-10.5,15.8s-19.8,23.7-19.8,23.7s-17.4,20.1-17.4,26.3
	c0,0-17-28.4-27.1-27.7l19.7-22.6c0,0,3.4-3.7,3.5-5.9c0.2-2.2,9.5-12.4,13.9-12.9c0,0,0.7-6.1-1.2-6.2s-3.6-4.9-3.6-4.9
	s-13-15.4-13.2-25.1C932.7,349.6,950.4,329.3,950.4,329.3z"/>
<path class="st7" d="M958.2,343.4c0,0-12.4,9.2-9.8,12.1S958.2,343.4,958.2,343.4z"/>
<path class="st7" d="M958.8,381.2c0,0,23.1-7.4,25.4,0H958.8z"/>
<path class="st7" d="M815.9,774.3c0,0-12.4,8.1-18.6,7c-6.2-1.1-12.6,2.1-12.6,2.1c-4.3,4.7-9.7,8.2-15.7,10.2
	c-10,3.4-24.1,2.1-32.1-0.6c-3.8-1.3-4.1-2.9-2.3-4.9c8.7,1.7,28.1,5.2,33.3,2.7c6.8-3.3,16.6-10.4,16.6-10.4s12.7-1.8,14.5-1.8
	c1.3,0,11.1-4.1,16.6-6.4L815.9,774.3z"/>
<path class="st7" d="M891.2,791l-0.1,0.8c0,0-3,6.5-19.4,8.9s-16.4-5.5-16.4-5.5s0.1-0.8,0.2-2.1C860.6,795,872,797.2,891.2,791z"/>
<path class="st7" d="M796,341.6c0,0,0,33.7-2.9,37.1S796,341.6,796,341.6z"/>
<path class="st7" d="M929.4,352.5l4.3,12.1C933.7,364.5,935.4,352.7,929.4,352.5z"/>
<g class="st13">
	<path d="M824.8,223.2c1.1-2.8-1.8-5.5-2.1-8.5c-0.4,0.8-0.5,1.8-0.5,2.7c0.2,2.2,1.8,4.3,2.3,6.4
		C824.6,223.6,824.7,223.4,824.8,223.2z"/>
	<path d="M873.9,255c-1.1-4.7-0.8-9.6-1.8-14.3c-1.1-4.7-4.4-9.5-8.9-9.6c-2,0-4.2,0.7-5.7-0.7c-0.9-0.9-1-2.3-1.7-3.4
		c-3.2-5.2-13.1-2.6-17.1,0.1c-6,4-14.4,12.4-22.1,10.5c-0.4,0.9-0.7,1.8-1,2.7c7.9,2.5,16.5-6.2,22.7-10.4c4-2.7,13.9-5.3,17.1-0.1
		c0.6,1.1,0.8,2.5,1.7,3.3c1.4,1.5,3.7,0.7,5.7,0.8c4.5,0.1,7.8,4.9,9,9.6c1.1,4.8,0.7,9.8,1.9,14.5
		C873.4,257.1,873.6,256,873.9,255z"/>
	<path d="M896.1,249.5c-0.8,2.3-2.9,4.5-5.2,4s-3.4-3.1-5.1-4.7c-2.2-2-5.4-2.5-8-1.1c-2.5,1.5-4,4.2-3.9,7.2
		c0.6-1.8,1.8-3.3,3.5-4.3c2.6-1.4,5.8-0.9,8,1.1c1.7,1.6,2.9,4.2,5.1,4.7c2.2,0.5,4.4-1.7,5.2-4c0.4-1.4,0.7-2.8,0.8-4.2
		C896.4,248.6,896.3,249,896.1,249.5z"/>
	<path d="M903.1,229.3c-1.7,4.4-4.7,8.2-5.7,12.8c-0.2,0.9-0.3,1.9-0.4,2.8c1-4.6,4-8.4,5.7-12.8c0.7-2,1.2-4,1.4-6.1
		C903.8,227.2,903.5,228.3,903.1,229.3z"/>
</g>
<circle class="st14" cx="689.3" cy="336.1" r="0.4"/>
<ellipse class="st1" cx="817" cy="792.3" rx="86.3" ry="8.8"/>
<g>
	<path class="st15" d="M499.6,214.4L238,384l170.7,307.8c1.6,2.9,4.4,5,7.6,5.8l154.6,37.7c5.5,1.3,11.1-1.3,13.5-6.4l76.7-159.4
		l84.1-112.4l-199.5-236C534.3,207.7,514.5,204.7,499.6,214.4z"/>
	<path class="st7" d="M747.9,458.6l-0.7,1l-49.2,65.8l-0.9,1.2L663.8,571l-65.6,136.3l-1.8,3.8l-9.3,19.2c-2.4,5.1-8.1,7.7-13.6,6.4
		L418.9,699c-3.2-0.8-6-2.9-7.6-5.8l-14.9-26.8l-2.7-4.8L286.5,467.9l-0.9-1.6l-44.9-80.9l5.4-3.5l41.1-26.6l1-0.6l86.5-56.1
		l5.5-3.5l122-79.2c14.9-9.7,34.7-6.8,46.2,6.8l91,107.7l4,4.8l66.1,78.1l0.4,0.4l33.2,39.3l4.2,5L747.9,458.6z"/>
	<path class="st7" d="M707.3,412.3l-8.1,56l-2.4,16.9l-1.4,36l-0.1,2.8L688,712.1c-0.3,6.6-5.8,11.7-12.4,11.4
		c-0.7,0-1.4-0.1-2.1-0.3l-77.9-17.4l-0.8-0.2l-199.9-44.6l-3.7-0.8l-109.9-24.5l2.5-169.1l0.1-5.6l0.8-51.2l0.8-56.5l86.5-56.1
		l5.5-3.5c80.3,8.2,187,24.1,259.3,35.4l4,4.8l66,78.1L707.3,412.3z"/>
	<path class="st3" d="M716.4,345.9l-9.5,66l-8.7,60.4l-2.4,16.9l-1.4,36L687,716.1c-0.3,6.6-5.8,11.7-12.4,11.4
		c-0.7,0-1.4-0.1-2.1-0.3l-78.8-17.6l-199.9-44.6l-113.6-25.4l2.6-174.8l0.8-51.2l0.9-59.9l0.9-61.6c18.8-0.9,49.7,1.1,86.6,4.8
		c82.6,8.3,195.2,25.1,268.8,36.6C685.9,340.8,716.4,345.9,716.4,345.9z"/>
	<path class="st7" d="M740.5,451.6l-42.3,20.7L482.5,578.1L283.7,413.8l-40.2-33.3L238,384l44.9,80.9l-2.6,174.8l113.6,25.4
		l14.8,26.8c1.6,2.9,4.4,5,7.6,5.8l154.6,37.7c5.5,1.3,11.1-1.4,13.5-6.4l9.3-19.2l78.8,17.6c6.4,1.4,12.8-2.6,14.2-9.1
		c0.2-0.7,0.2-1.4,0.3-2.1l7.3-190.9l50.1-67l0.1-1.7L740.5,451.6z"/>
	<path class="st15" d="M238,384l-17.8,305.3c-0.3,5.8,3.6,11.1,9.3,12.3L703,806.9c6.4,1.4,12.8-2.7,14.2-9.1c0.1-0.5,0.2-1,0.2-1.6
		l27.8-339L482.5,586.1L238,384z"/>
	<path class="st7" d="M223.5,696.4l246-151.8c7.5-4.6,17.2-3,23,3.6L712.7,805c0.8,0.9,1.2,0.3,0,0L223.5,696.4
		C222.1,696.1,222.2,697.1,223.5,696.4z"/>
	<path class="st16" d="M225.2,696.1L468.7,549c7.9-4.8,18.2-3.2,24.3,3.8l218.2,250.9c1,1.1,0.8,2.8-0.3,3.7
		c-0.6,0.5-1.5,0.8-2.3,0.6L226,700.9c-1.4-0.3-2.3-1.7-2-3.1C224.2,697.1,224.6,696.5,225.2,696.1z"/>
</g>
</svg>
